<svg xmlns="http://www.w3.org/2000/svg" width="2344" height="1668" viewBox="0 0 2344 1668" shape-rendering="geometricPrecision">
<title>Logo vectorisé net</title>
<g fill-rule="evenodd">
<g id="white_under" fill="#ffffff" fill-opacity="0.95">
<path d="M 2333.0 73.0 L 2329.0 70.0 L 2325.0 63.0 L 2313.0 53.0 L 2312.0 49.0 L 2304.0 44.0 L 2297.0 36.0 L 2289.0 32.0 L 2281.0 24.0 L 2279.0 24.0 L 2273.0 16.0 L 2269.0 15.0 L 2266.0 12.0 L 2263.0 12.0 L 2260.0 8.0 L 2254.0 8.0 L 2249.0 4.0 L 2228.0 4.0 L 2225.0 3.0 L 2224.0 0.0 L 2067.0 0.0 L 2066.0 2.0 L 2045.0 4.0 L 2001.0 4.0 L 1983.0 8.0 L 1961.0 8.0 L 1958.0 10.0 L 1945.0 12.0 L 1928.0 12.0 L 1926.0 14.0 L 1921.0 13.0 L 1913.0 16.0 L 1890.0 16.0 L 1883.0 20.0 L 1855.0 20.0 L 1847.0 24.0 L 1830.0 24.0 L 1824.0 28.0 L 1807.0 28.0 L 1803.0 32.0 L 1780.0 32.0 L 1772.0 36.0 L 1756.0 36.0 L 1750.0 40.0 L 1738.0 40.0 L 1733.0 43.0 L 1710.0 44.0 L 1703.0 48.0 L 1688.0 48.0 L 1683.0 52.0 L 1669.0 52.0 L 1663.0 56.0 L 1649.0 56.0 L 1643.0 60.0 L 1632.0 60.0 L 1627.0 64.0 L 1618.0 64.0 L 1612.0 68.0 L 1599.0 68.0 L 1595.0 72.0 L 1582.0 72.0 L 1575.0 76.0 L 1565.0 76.0 L 1559.0 80.0 L 1550.0 80.0 L 1544.0 84.0 L 1534.0 84.0 L 1530.0 88.0 L 1519.0 88.0 L 1514.0 92.0 L 1506.0 92.0 L 1502.0 96.0 L 1489.0 96.0 L 1483.0 100.0 L 1471.0 100.0 L 1466.0 104.0 L 1459.0 104.0 L 1453.0 108.0 L 1449.0 108.0 L 1446.0 112.0 L 1435.0 112.0 L 1429.0 116.0 L 1419.0 116.0 L 1411.0 120.0 L 1406.0 120.0 L 1401.0 124.0 L 1390.0 124.0 L 1387.0 127.0 L 1380.0 128.0 L 1375.0 132.0 L 1368.0 132.0 L 1359.0 136.0 L 1350.0 136.0 L 1346.0 139.0 L 1339.0 140.0 L 1335.0 144.0 L 1326.0 144.0 L 1322.0 148.0 L 1315.0 148.0 L 1310.0 152.0 L 1304.0 152.0 L 1299.0 155.0 L 1278.0 160.0 L 1272.0 164.0 L 1266.0 164.0 L 1262.0 168.0 L 1256.0 168.0 L 1252.0 172.0 L 1244.0 172.0 L 1240.0 176.0 L 1230.0 176.0 L 1228.0 179.0 L 1221.0 180.0 L 1215.0 184.0 L 1210.0 184.0 L 1206.0 188.0 L 1197.0 188.0 L 1194.0 192.0 L 1185.0 192.0 L 1181.0 196.0 L 1175.0 196.0 L 1172.0 199.0 L 1164.0 200.0 L 1163.0 202.0 L 1157.0 201.0 L 1151.0 207.0 L 1145.0 208.0 L 1142.0 212.0 L 1136.0 212.0 L 1131.0 216.0 L 1124.0 216.0 L 1119.0 220.0 L 1113.0 220.0 L 1109.0 224.0 L 1103.0 224.0 L 1099.0 228.0 L 1091.0 228.0 L 1087.0 232.0 L 1081.0 232.0 L 1078.0 235.0 L 1069.0 236.0 L 1065.0 240.0 L 1061.0 240.0 L 1058.0 244.0 L 1051.0 244.0 L 1047.0 248.0 L 1042.0 248.0 L 1038.0 252.0 L 1032.0 252.0 L 1029.0 256.0 L 1022.0 256.0 L 1018.0 260.0 L 1013.0 260.0 L 1007.0 264.0 L 1001.0 264.0 L 998.0 268.0 L 988.0 268.0 L 986.0 271.0 L 980.0 272.0 L 977.0 276.0 L 973.0 276.0 L 969.0 280.0 L 963.0 280.0 L 952.0 288.0 L 944.0 288.0 L 942.0 291.0 L 937.0 292.0 L 933.0 296.0 L 927.0 296.0 L 923.0 300.0 L 919.0 300.0 L 913.0 304.0 L 902.0 306.0 L 895.0 312.0 L 889.0 312.0 L 886.0 316.0 L 880.0 316.0 L 877.0 319.0 L 872.0 320.0 L 868.0 324.0 L 862.0 324.0 L 858.0 328.0 L 851.0 328.0 L 848.0 331.0 L 844.0 332.0 L 841.0 336.0 L 835.0 336.0 L 831.0 340.0 L 827.0 340.0 L 823.0 344.0 L 819.0 344.0 L 815.0 348.0 L 811.0 348.0 L 807.0 352.0 L 802.0 352.0 L 791.0 360.0 L 785.0 360.0 L 782.0 364.0 L 775.0 368.0 L 769.0 368.0 L 766.0 372.0 L 760.0 372.0 L 757.0 376.0 L 750.0 376.0 L 748.0 379.0 L 743.0 380.0 L 738.0 384.0 L 733.0 384.0 L 730.0 388.0 L 723.0 392.0 L 718.0 392.0 L 712.0 396.0 L 700.0 400.0 L 697.0 404.0 L 695.0 404.0 L 692.0 407.0 L 686.0 408.0 L 682.0 412.0 L 678.0 412.0 L 673.0 416.0 L 669.0 416.0 L 659.0 424.0 L 653.0 424.0 L 646.0 432.0 L 638.0 432.0 L 629.0 440.0 L 624.0 440.0 L 621.0 443.0 L 617.0 444.0 L 614.0 448.0 L 609.0 448.0 L 606.0 452.0 L 604.0 452.0 L 601.0 455.0 L 593.0 456.0 L 586.0 464.0 L 581.0 464.0 L 577.0 468.0 L 572.0 468.0 L 569.0 471.0 L 557.0 476.0 L 554.0 480.0 L 546.0 481.0 L 545.0 483.0 L 541.0 484.0 L 538.0 488.0 L 534.0 488.0 L 526.0 496.0 L 520.0 496.0 L 517.0 499.0 L 513.0 500.0 L 510.0 504.0 L 505.0 504.0 L 502.0 508.0 L 499.0 508.0 L 495.0 512.0 L 492.0 512.0 L 489.0 515.0 L 485.0 516.0 L 476.0 523.0 L 469.0 524.0 L 466.0 528.0 L 462.0 528.0 L 453.0 536.0 L 449.0 536.0 L 446.0 540.0 L 443.0 540.0 L 439.0 544.0 L 436.0 544.0 L 434.0 547.0 L 429.0 548.0 L 425.0 552.0 L 418.0 553.0 L 415.0 556.0 L 413.0 556.0 L 410.0 560.0 L 407.0 560.0 L 397.0 568.0 L 394.0 568.0 L 392.0 571.0 L 386.0 572.0 L 378.0 580.0 L 371.0 584.0 L 367.0 584.0 L 358.0 592.0 L 353.0 592.0 L 345.0 600.0 L 336.0 604.0 L 334.0 607.0 L 322.0 612.0 L 320.0 615.0 L 313.0 620.0 L 310.0 620.0 L 297.0 631.0 L 292.0 632.0 L 281.0 640.0 L 278.0 640.0 L 270.0 648.0 L 268.0 648.0 L 264.0 652.0 L 258.0 653.0 L 245.0 664.0 L 237.0 668.0 L 234.0 672.0 L 229.0 672.0 L 221.0 679.0 L 217.0 680.0 L 214.0 684.0 L 211.0 684.0 L 205.0 691.0 L 201.0 692.0 L 199.0 695.0 L 194.0 696.0 L 190.0 700.0 L 182.0 704.0 L 174.0 712.0 L 169.0 713.0 L 168.0 718.0 L 166.0 720.0 L 161.0 720.0 L 158.0 724.0 L 155.0 724.0 L 146.0 732.0 L 144.0 732.0 L 134.0 740.0 L 126.0 744.0 L 120.0 751.0 L 116.0 752.0 L 103.0 763.0 L 89.0 772.0 L 78.0 784.0 L 73.0 784.0 L 68.0 791.0 L 64.0 792.0 L 62.0 795.0 L 45.0 808.0 L 42.0 808.0 L 38.0 815.0 L 33.0 816.0 L 19.0 832.0 L 14.0 836.0 L 11.0 836.0 L 5.0 844.0 L 0.0 846.0 L 0.0 859.0 L 8.0 861.0 L 11.0 858.0 L 16.0 857.0 L 21.0 850.0 L 31.0 841.0 L 33.0 841.0 L 42.0 833.0 L 56.0 825.0 L 64.0 817.0 L 68.0 817.0 L 84.0 805.0 L 87.0 801.0 L 93.0 801.0 L 96.0 798.0 L 101.0 797.0 L 106.0 792.0 L 111.0 790.0 L 114.0 786.0 L 119.0 785.0 L 132.0 774.0 L 136.0 773.0 L 139.0 769.0 L 144.0 769.0 L 151.0 761.0 L 155.0 761.0 L 164.0 754.0 L 169.0 753.0 L 171.0 750.0 L 188.0 741.0 L 191.0 737.0 L 195.0 737.0 L 203.0 729.0 L 208.0 729.0 L 215.0 721.0 L 218.0 721.0 L 222.0 717.0 L 225.0 717.0 L 235.0 709.0 L 240.0 709.0 L 243.0 705.0 L 247.0 705.0 L 256.0 697.0 L 260.0 697.0 L 267.0 689.0 L 272.0 689.0 L 275.0 685.0 L 280.0 685.0 L 288.0 677.0 L 293.0 677.0 L 296.0 673.0 L 299.0 673.0 L 308.0 666.0 L 320.0 661.0 L 328.0 653.0 L 333.0 653.0 L 335.0 650.0 L 340.0 649.0 L 343.0 645.0 L 348.0 645.0 L 356.0 637.0 L 360.0 637.0 L 363.0 633.0 L 369.0 633.0 L 372.0 630.0 L 378.0 629.0 L 385.0 622.0 L 389.0 621.0 L 401.0 613.0 L 405.0 613.0 L 406.0 615.0 L 397.0 620.0 L 394.0 624.0 L 379.0 632.0 L 374.0 639.0 L 369.0 640.0 L 364.0 645.0 L 364.0 647.0 L 356.0 653.0 L 356.0 656.0 L 371.0 657.0 L 374.0 654.0 L 380.0 653.0 L 384.0 649.0 L 392.0 649.0 L 409.0 637.0 L 414.0 637.0 L 418.0 633.0 L 425.0 633.0 L 428.0 630.0 L 433.0 629.0 L 438.0 625.0 L 441.0 625.0 L 443.0 622.0 L 450.0 617.0 L 453.0 617.0 L 455.0 614.0 L 460.0 614.0 L 471.0 605.0 L 475.0 605.0 L 477.0 602.0 L 483.0 601.0 L 491.0 593.0 L 496.0 593.0 L 499.0 589.0 L 505.0 589.0 L 508.0 586.0 L 513.0 585.0 L 517.0 581.0 L 521.0 581.0 L 527.0 577.0 L 532.0 577.0 L 535.0 573.0 L 539.0 573.0 L 541.0 570.0 L 547.0 569.0 L 559.0 557.0 L 568.0 557.0 L 572.0 553.0 L 577.0 553.0 L 581.0 549.0 L 585.0 549.0 L 588.0 545.0 L 594.0 545.0 L 597.0 542.0 L 602.0 541.0 L 606.0 537.0 L 611.0 537.0 L 615.0 533.0 L 619.0 533.0 L 626.0 529.0 L 640.0 525.0 L 642.0 522.0 L 649.0 521.0 L 652.0 518.0 L 657.0 517.0 L 661.0 513.0 L 667.0 513.0 L 671.0 509.0 L 679.0 509.0 L 683.0 505.0 L 689.0 505.0 L 693.0 501.0 L 696.0 501.0 L 699.0 497.0 L 706.0 497.0 L 709.0 494.0 L 714.0 493.0 L 718.0 489.0 L 727.0 489.0 L 729.0 486.0 L 733.0 485.0 L 738.0 481.0 L 745.0 481.0 L 748.0 478.0 L 755.0 477.0 L 759.0 473.0 L 767.0 473.0 L 778.0 465.0 L 785.0 465.0 L 789.0 461.0 L 796.0 461.0 L 800.0 457.0 L 808.0 457.0 L 814.0 453.0 L 820.0 453.0 L 826.0 449.0 L 832.0 449.0 L 837.0 445.0 L 843.0 445.0 L 851.0 441.0 L 857.0 441.0 L 862.0 437.0 L 865.0 437.0 L 872.0 433.0 L 877.0 433.0 L 882.0 429.0 L 889.0 429.0 L 894.0 425.0 L 904.0 425.0 L 908.0 421.0 L 917.0 421.0 L 922.0 417.0 L 931.0 417.0 L 935.0 413.0 L 941.0 413.0 L 946.0 409.0 L 953.0 409.0 L 957.0 406.0 L 964.0 405.0 L 968.0 401.0 L 975.0 401.0 L 979.0 397.0 L 987.0 397.0 L 991.0 393.0 L 1004.0 393.0 L 1010.0 390.0 L 1017.0 389.0 L 1022.0 385.0 L 1033.0 385.0 L 1036.0 382.0 L 1042.0 381.0 L 1047.0 377.0 L 1059.0 377.0 L 1065.0 373.0 L 1074.0 373.0 L 1078.0 369.0 L 1085.0 369.0 L 1090.0 365.0 L 1097.0 365.0 L 1100.0 362.0 L 1117.0 361.0 L 1122.0 357.0 L 1130.0 357.0 L 1136.0 353.0 L 1145.0 353.0 L 1149.0 350.0 L 1160.0 349.0 L 1166.0 345.0 L 1175.0 345.0 L 1180.0 341.0 L 1192.0 341.0 L 1195.0 337.0 L 1207.0 337.0 L 1214.0 333.0 L 1226.0 333.0 L 1230.0 329.0 L 1241.0 329.0 L 1244.0 326.0 L 1261.0 325.0 L 1268.0 321.0 L 1278.0 321.0 L 1283.0 317.0 L 1300.0 317.0 L 1306.0 313.0 L 1312.0 313.0 L 1318.0 309.0 L 1330.0 309.0 L 1338.0 305.0 L 1348.0 305.0 L 1353.0 301.0 L 1370.0 301.0 L 1377.0 297.0 L 1390.0 297.0 L 1397.0 293.0 L 1415.0 293.0 L 1422.0 289.0 L 1430.0 289.0 L 1435.0 285.0 L 1448.0 285.0 L 1452.0 281.0 L 1478.0 281.0 L 1483.0 277.0 L 1499.0 277.0 L 1506.0 273.0 L 1525.0 273.0 L 1531.0 269.0 L 1555.0 269.0 L 1562.0 265.0 L 1575.0 265.0 L 1585.0 261.0 L 1602.0 261.0 L 1605.0 259.0 L 1611.0 260.0 L 1615.0 257.0 L 1636.0 257.0 L 1647.0 253.0 L 1667.0 253.0 L 1672.0 249.0 L 1695.0 249.0 L 1701.0 246.0 L 1726.0 245.0 L 1731.0 242.0 L 1738.0 241.0 L 1773.0 241.0 L 1782.0 237.0 L 1818.0 237.0 L 1824.0 235.0 L 1843.0 235.0 L 1849.0 233.0 L 1895.0 233.0 L 1901.0 229.0 L 2040.0 229.0 L 2045.0 231.0 L 2061.0 233.0 L 2082.0 233.0 L 2086.0 236.0 L 2092.0 237.0 L 2117.0 237.0 L 2140.0 241.0 L 2178.0 241.0 L 2185.0 238.0 L 2206.0 237.0 L 2210.0 234.0 L 2220.0 233.0 L 2223.0 230.0 L 2230.0 229.0 L 2233.0 226.0 L 2239.0 225.0 L 2245.0 220.0 L 2245.0 218.0 L 2248.0 215.0 L 2249.0 203.0 L 2252.0 200.0 L 2252.0 194.0 L 2263.0 185.0 L 2269.0 185.0 L 2274.0 181.0 L 2280.0 181.0 L 2283.0 177.0 L 2286.0 177.0 L 2289.0 174.0 L 2300.0 169.0 L 2303.0 165.0 L 2307.0 165.0 L 2315.0 157.0 L 2329.0 147.0 L 2329.0 143.0 L 2341.0 132.0 L 2341.0 126.0 L 2343.0 125.0 L 2343.0 109.0 L 2341.0 107.0 L 2341.0 100.0 L 2337.0 96.0 L 2337.0 87.0 L 2334.0 83.0 Z M 10.0 849.0 L 11.0 846.0 L 14.0 847.0 L 13.0 849.0 Z M 34.0 826.0 L 35.0 828.0 L 32.0 830.0 L 31.0 828.0 Z M 34.0 825.0 L 37.0 822.0 L 40.0 826.0 L 35.0 827.0 Z M 41.0 820.0 L 43.0 818.0 L 46.0 819.0 L 45.0 822.0 L 42.0 822.0 Z M 129.0 754.0 L 125.0 756.0 L 124.0 760.0 L 130.0 763.0 L 134.0 763.0 L 135.0 765.0 L 133.0 767.0 L 129.0 768.0 L 122.0 775.0 L 111.0 779.0 L 109.0 782.0 L 105.0 783.0 L 97.0 791.0 L 85.0 795.0 L 77.0 803.0 L 65.0 808.0 L 62.0 811.0 L 60.0 811.0 L 57.0 815.0 L 52.0 814.0 L 56.0 810.0 L 56.0 808.0 L 67.0 798.0 L 81.0 791.0 L 88.0 784.0 L 91.0 778.0 L 107.0 769.0 L 125.0 753.0 Z M 146.0 756.0 L 150.0 752.0 L 154.0 753.0 L 147.0 757.0 Z M 176.0 740.0 L 174.0 743.0 L 169.0 743.0 L 173.0 739.0 Z M 152.0 737.0 L 151.0 742.0 L 147.0 744.0 L 142.0 751.0 L 130.0 754.0 L 128.0 753.0 L 134.0 746.0 L 143.0 742.0 L 147.0 738.0 L 151.0 736.0 Z M 201.0 725.0 L 200.0 727.0 L 195.0 728.0 L 193.0 731.0 L 189.0 732.0 L 187.0 735.0 L 183.0 736.0 L 180.0 739.0 L 177.0 738.0 L 191.0 726.0 L 196.0 724.0 Z M 173.0 722.0 L 163.0 736.0 L 155.0 738.0 L 151.0 736.0 L 156.0 733.0 L 162.0 726.0 L 167.0 725.0 L 168.0 721.0 Z M 216.0 713.0 L 217.0 712.0 L 218.0 714.0 L 217.0 715.0 Z M 184.0 710.0 L 185.0 712.0 L 183.0 717.0 L 179.0 720.0 L 174.0 721.0 L 173.0 719.0 L 179.0 713.0 L 182.0 713.0 Z M 232.0 705.0 L 231.0 708.0 L 227.0 708.0 L 222.0 712.0 L 217.0 712.0 L 219.0 707.0 L 224.0 704.0 L 230.0 703.0 Z M 259.0 689.0 L 252.0 695.0 L 247.0 695.0 L 250.0 691.0 L 256.0 688.0 Z M 223.0 684.0 L 225.0 681.0 L 230.0 682.0 L 227.0 685.0 Z M 237.0 675.0 L 240.0 673.0 L 243.0 674.0 L 241.0 676.0 Z M 283.0 674.0 L 285.0 672.0 L 286.0 673.0 L 285.0 675.0 Z M 247.0 669.0 L 248.0 670.0 L 243.0 674.0 L 242.0 671.0 Z M 299.0 665.0 L 297.0 668.0 L 294.0 668.0 L 291.0 671.0 L 289.0 670.0 L 293.0 666.0 L 298.0 664.0 Z M 360.0 628.0 L 361.0 630.0 L 358.0 632.0 L 357.0 631.0 Z M 369.0 625.0 L 365.0 628.0 L 362.0 627.0 L 364.0 625.0 Z M 426.0 624.0 L 424.0 627.0 L 416.0 628.0 L 413.0 631.0 L 405.0 632.0 L 397.0 639.0 L 393.0 640.0 L 390.0 644.0 L 382.0 644.0 L 380.0 646.0 L 376.0 645.0 L 386.0 634.0 L 390.0 633.0 L 392.0 630.0 L 397.0 629.0 L 404.0 622.0 L 410.0 620.0 L 415.0 625.0 L 421.0 625.0 L 424.0 623.0 Z M 329.0 618.0 L 327.0 621.0 L 322.0 623.0 L 319.0 622.0 L 325.0 617.0 Z M 329.0 615.0 L 330.0 614.0 L 331.0 616.0 L 330.0 617.0 Z M 453.0 610.0 L 447.0 612.0 L 444.0 616.0 L 442.0 616.0 L 439.0 619.0 L 436.0 616.0 L 431.0 616.0 L 419.0 612.0 L 439.0 600.0 L 445.0 606.0 L 446.0 609.0 Z M 354.0 600.0 L 356.0 598.0 L 358.0 599.0 L 356.0 601.0 Z M 467.0 599.0 L 469.0 593.0 L 483.0 593.0 L 482.0 595.0 L 475.0 597.0 L 473.0 600.0 Z M 491.0 587.0 L 493.0 585.0 L 493.0 582.0 L 497.0 579.0 L 506.0 580.0 L 504.0 583.0 L 498.0 584.0 L 496.0 587.0 Z M 546.0 562.0 L 544.0 564.0 L 541.0 564.0 L 538.0 568.0 L 532.0 567.0 L 532.0 565.0 L 535.0 562.0 Z M 422.0 559.0 L 425.0 557.0 L 427.0 558.0 L 425.0 560.0 Z M 557.0 552.0 L 559.0 555.0 L 556.0 557.0 L 554.0 555.0 Z M 550.0 551.0 L 539.0 559.0 L 534.0 557.0 L 539.0 552.0 L 545.0 550.0 Z M 550.0 540.0 L 550.0 542.0 L 547.0 545.0 L 540.0 544.0 L 545.0 540.0 Z M 690.0 497.0 L 688.0 500.0 L 681.0 501.0 L 680.0 504.0 L 674.0 503.0 L 682.0 497.0 Z M 534.0 495.0 L 536.0 493.0 L 540.0 494.0 L 538.0 496.0 Z M 550.0 487.0 L 546.0 492.0 L 542.0 494.0 L 539.0 493.0 L 548.0 486.0 Z M 731.0 479.0 L 734.0 477.0 L 737.0 479.0 Z M 571.0 475.0 L 573.0 473.0 L 576.0 474.0 L 574.0 476.0 Z M 579.0 471.0 L 581.0 469.0 L 583.0 470.0 L 581.0 472.0 Z M 638.0 439.0 L 639.0 437.0 L 644.0 438.0 L 642.0 440.0 Z M 647.0 435.0 L 648.0 433.0 L 651.0 434.0 L 648.0 436.0 Z M 654.0 431.0 L 656.0 429.0 L 661.0 430.0 L 658.0 432.0 Z M 790.0 427.0 L 786.0 432.0 L 782.0 431.0 L 787.0 426.0 Z M 662.0 428.0 L 663.0 425.0 L 666.0 426.0 L 664.0 429.0 Z M 841.0 416.0 L 844.0 413.0 L 849.0 414.0 L 847.0 416.0 Z M 829.0 412.0 L 832.0 409.0 L 838.0 410.0 L 832.0 413.0 Z M 954.0 401.0 L 952.0 403.0 L 943.0 405.0 L 941.0 408.0 L 935.0 407.0 L 941.0 401.0 Z M 880.0 393.0 L 878.0 396.0 L 875.0 396.0 L 870.0 400.0 L 865.0 400.0 L 862.0 402.0 L 857.0 401.0 L 859.0 397.0 L 865.0 397.0 L 870.0 394.0 L 878.0 392.0 Z M 874.0 386.0 L 877.0 384.0 L 881.0 385.0 L 879.0 387.0 Z M 929.0 384.0 L 931.0 382.0 L 933.0 383.0 L 931.0 385.0 Z M 901.0 385.0 L 903.0 382.0 L 908.0 383.0 L 906.0 386.0 Z M 750.0 383.0 L 752.0 381.0 L 755.0 382.0 L 752.0 384.0 Z M 921.0 370.0 L 913.0 372.0 L 909.0 376.0 L 904.0 375.0 L 907.0 371.0 L 914.0 369.0 Z M 1075.0 365.0 L 1072.0 368.0 L 1066.0 367.0 L 1072.0 364.0 Z M 1000.0 362.0 L 1000.0 364.0 L 996.0 367.0 L 982.0 367.0 L 989.0 365.0 L 993.0 361.0 Z M 795.0 364.0 L 797.0 361.0 L 802.0 362.0 L 797.0 365.0 Z M 802.0 360.0 L 803.0 358.0 L 805.0 359.0 L 803.0 361.0 Z M 818.0 352.0 L 820.0 349.0 L 826.0 350.0 L 820.0 353.0 Z M 825.0 349.0 L 828.0 346.0 L 831.0 347.0 L 827.0 350.0 Z M 871.0 329.0 L 870.0 331.0 L 864.0 333.0 L 861.0 332.0 L 862.0 329.0 Z M 1066.0 319.0 L 1069.0 317.0 L 1075.0 318.0 L 1073.0 320.0 Z M 939.0 299.0 L 933.0 304.0 L 926.0 304.0 L 928.0 301.0 L 934.0 301.0 L 936.0 298.0 Z M 1328.0 270.0 L 1340.0 270.0 L 1334.0 272.0 Z M 1345.0 268.0 L 1347.0 266.0 L 1350.0 267.0 L 1347.0 269.0 Z M 1058.0 249.0 L 1060.0 245.0 L 1063.0 247.0 L 1060.0 250.0 Z M 1567.0 220.0 L 1570.0 218.0 L 1576.0 219.0 L 1573.0 221.0 Z M 1546.0 216.0 L 1541.0 219.0 L 1527.0 220.0 L 1517.0 224.0 L 1511.0 224.0 L 1502.0 228.0 L 1491.0 228.0 L 1483.0 232.0 L 1470.0 232.0 L 1466.0 235.0 L 1453.0 236.0 L 1450.0 240.0 L 1437.0 240.0 L 1432.0 244.0 L 1411.0 244.0 L 1407.0 248.0 L 1397.0 248.0 L 1391.0 252.0 L 1383.0 252.0 L 1377.0 256.0 L 1364.0 256.0 L 1357.0 260.0 L 1347.0 260.0 L 1343.0 264.0 L 1333.0 264.0 L 1328.0 268.0 L 1310.0 268.0 L 1303.0 272.0 L 1294.0 272.0 L 1288.0 276.0 L 1280.0 276.0 L 1277.0 280.0 L 1269.0 280.0 L 1263.0 284.0 L 1247.0 284.0 L 1244.0 287.0 L 1231.0 288.0 L 1228.0 291.0 L 1216.0 292.0 L 1210.0 296.0 L 1203.0 296.0 L 1197.0 300.0 L 1193.0 299.0 L 1192.0 297.0 L 1189.0 297.0 L 1184.0 300.0 L 1181.0 304.0 L 1172.0 304.0 L 1167.0 308.0 L 1160.0 308.0 L 1156.0 311.0 L 1144.0 312.0 L 1140.0 316.0 L 1128.0 316.0 L 1124.0 319.0 L 1110.0 320.0 L 1106.0 323.0 L 1099.0 324.0 L 1094.0 328.0 L 1083.0 328.0 L 1078.0 331.0 L 1072.0 332.0 L 1069.0 335.0 L 1058.0 335.0 L 1051.0 340.0 L 1043.0 340.0 L 1038.0 344.0 L 1034.0 344.0 L 1030.0 348.0 L 1017.0 348.0 L 1014.0 351.0 L 1004.0 352.0 L 998.0 356.0 L 991.0 356.0 L 986.0 360.0 L 981.0 360.0 L 977.0 364.0 L 968.0 364.0 L 966.0 367.0 L 960.0 368.0 L 960.0 370.0 L 957.0 372.0 L 945.0 372.0 L 940.0 375.0 L 931.0 376.0 L 928.0 379.0 L 921.0 380.0 L 917.0 383.0 L 908.0 382.0 L 912.0 378.0 L 920.0 377.0 L 935.0 369.0 L 944.0 369.0 L 948.0 366.0 L 955.0 365.0 L 957.0 362.0 L 964.0 361.0 L 967.0 358.0 L 977.0 357.0 L 981.0 353.0 L 990.0 353.0 L 996.0 349.0 L 1001.0 349.0 L 1003.0 346.0 L 1013.0 345.0 L 1018.0 341.0 L 1023.0 341.0 L 1027.0 337.0 L 1034.0 337.0 L 1038.0 334.0 L 1049.0 333.0 L 1053.0 329.0 L 1063.0 329.0 L 1067.0 326.0 L 1074.0 325.0 L 1079.0 321.0 L 1090.0 321.0 L 1094.0 317.0 L 1101.0 318.0 L 1106.0 313.0 L 1113.0 313.0 L 1118.0 309.0 L 1123.0 309.0 L 1127.0 305.0 L 1137.0 305.0 L 1142.0 301.0 L 1153.0 301.0 L 1158.0 297.0 L 1167.0 297.0 L 1173.0 293.0 L 1185.0 293.0 L 1188.0 290.0 L 1193.0 289.0 L 1197.0 286.0 L 1209.0 285.0 L 1214.0 281.0 L 1223.0 281.0 L 1227.0 277.0 L 1239.0 277.0 L 1244.0 273.0 L 1251.0 273.0 L 1255.0 269.0 L 1268.0 269.0 L 1273.0 265.0 L 1288.0 265.0 L 1292.0 262.0 L 1305.0 261.0 L 1309.0 258.0 L 1320.0 257.0 L 1323.0 253.0 L 1335.0 253.0 L 1341.0 250.0 L 1353.0 249.0 L 1357.0 246.0 L 1370.0 245.0 L 1377.0 241.0 L 1391.0 241.0 L 1401.0 237.0 L 1417.0 237.0 L 1423.0 233.0 L 1434.0 233.0 L 1442.0 229.0 L 1463.0 229.0 L 1469.0 226.0 L 1485.0 225.0 L 1491.0 222.0 L 1503.0 221.0 L 1508.0 218.0 L 1514.0 217.0 L 1531.0 217.0 L 1543.0 214.0 Z M 1560.0 213.0 L 1561.0 211.0 L 1566.0 209.0 L 1583.0 210.0 L 1581.0 212.0 L 1572.0 212.0 L 1567.0 214.0 Z M 1635.0 208.0 L 1636.0 206.0 L 1640.0 207.0 L 1637.0 209.0 Z M 2243.0 203.0 L 2244.0 209.0 L 2241.0 214.0 L 2241.0 206.0 Z M 1314.0 156.0 L 1316.0 154.0 L 1318.0 155.0 L 1316.0 157.0 Z M 2333.0 129.0 L 2334.0 128.0 L 2335.0 130.0 L 2334.0 131.0 Z M 1533.0 91.0 L 1535.0 89.0 L 1538.0 90.0 L 1536.0 92.0 Z M 2326.0 84.0 L 2327.0 96.0 L 2333.0 112.0 L 2333.0 120.0 L 2326.0 132.0 L 2316.0 143.0 L 2279.0 169.0 L 2249.0 181.0 L 2241.0 189.0 L 2236.0 211.0 L 2231.0 216.0 L 2206.0 226.0 L 2184.0 230.0 L 2156.0 231.0 L 2126.0 230.0 L 2118.0 228.0 L 2089.0 226.0 L 2077.0 223.0 L 2040.0 221.0 L 2029.0 219.0 L 1961.0 218.0 L 1907.0 220.0 L 1896.0 222.0 L 1873.0 222.0 L 1860.0 224.0 L 1803.0 227.0 L 1797.0 229.0 L 1713.0 235.0 L 1667.0 242.0 L 1650.0 243.0 L 1645.0 245.0 L 1622.0 247.0 L 1616.0 249.0 L 1597.0 250.0 L 1576.0 255.0 L 1520.0 263.0 L 1518.0 262.0 L 1508.0 266.0 L 1499.0 266.0 L 1487.0 269.0 L 1461.0 272.0 L 1456.0 274.0 L 1442.0 275.0 L 1414.0 282.0 L 1348.0 293.0 L 1335.0 297.0 L 1323.0 298.0 L 1317.0 301.0 L 1268.0 310.0 L 1253.0 315.0 L 1235.0 318.0 L 1212.0 325.0 L 1184.0 330.0 L 1158.0 338.0 L 1138.0 342.0 L 1102.0 354.0 L 1089.0 356.0 L 1074.0 361.0 L 1069.0 361.0 L 1058.0 366.0 L 1036.0 371.0 L 1030.0 374.0 L 1026.0 374.0 L 979.0 389.0 L 970.0 390.0 L 957.0 396.0 L 938.0 400.0 L 923.0 407.0 L 898.0 414.0 L 890.0 418.0 L 882.0 419.0 L 855.0 428.0 L 845.0 433.0 L 829.0 437.0 L 819.0 442.0 L 813.0 443.0 L 807.0 447.0 L 770.0 459.0 L 768.0 461.0 L 750.0 467.0 L 743.0 471.0 L 729.0 474.0 L 719.0 480.0 L 706.0 483.0 L 683.0 495.0 L 673.0 497.0 L 660.0 502.0 L 650.0 508.0 L 646.0 508.0 L 608.0 527.0 L 600.0 528.0 L 593.0 531.0 L 583.0 538.0 L 560.0 547.0 L 557.0 547.0 L 555.0 545.0 L 568.0 535.0 L 577.0 531.0 L 582.0 531.0 L 586.0 528.0 L 590.0 528.0 L 606.0 518.0 L 625.0 512.0 L 652.0 497.0 L 662.0 495.0 L 673.0 487.0 L 693.0 478.0 L 711.0 472.0 L 736.0 460.0 L 755.0 455.0 L 761.0 451.0 L 777.0 446.0 L 818.0 428.0 L 822.0 428.0 L 832.0 423.0 L 847.0 420.0 L 865.0 411.0 L 880.0 407.0 L 907.0 396.0 L 929.0 391.0 L 940.0 384.0 L 966.0 378.0 L 1017.0 360.0 L 1056.0 350.0 L 1061.0 347.0 L 1095.0 338.0 L 1098.0 336.0 L 1102.0 336.0 L 1110.0 332.0 L 1160.0 320.0 L 1184.0 312.0 L 1188.0 312.0 L 1194.0 309.0 L 1239.0 297.0 L 1286.0 287.0 L 1290.0 284.0 L 1302.0 282.0 L 1309.0 279.0 L 1342.0 273.0 L 1362.0 267.0 L 1371.0 266.0 L 1378.0 263.0 L 1439.0 251.0 L 1450.0 247.0 L 1456.0 247.0 L 1469.0 243.0 L 1479.0 242.0 L 1500.0 236.0 L 1529.0 232.0 L 1556.0 226.0 L 1575.0 224.0 L 1579.0 222.0 L 1609.0 216.0 L 1629.0 214.0 L 1658.0 208.0 L 1701.0 202.0 L 1705.0 200.0 L 1722.0 199.0 L 1728.0 197.0 L 1797.0 187.0 L 1810.0 182.0 L 1811.0 179.0 L 1801.0 177.0 L 1785.0 177.0 L 1720.0 181.0 L 1692.0 185.0 L 1669.0 186.0 L 1664.0 188.0 L 1645.0 189.0 L 1621.0 193.0 L 1611.0 193.0 L 1584.0 198.0 L 1575.0 198.0 L 1564.0 201.0 L 1549.0 202.0 L 1544.0 204.0 L 1515.0 207.0 L 1507.0 210.0 L 1493.0 211.0 L 1439.0 222.0 L 1431.0 222.0 L 1423.0 225.0 L 1386.0 231.0 L 1357.0 238.0 L 1346.0 239.0 L 1325.0 245.0 L 1315.0 246.0 L 1294.0 253.0 L 1261.0 259.0 L 1255.0 262.0 L 1232.0 267.0 L 1210.0 274.0 L 1197.0 276.0 L 1185.0 281.0 L 1163.0 286.0 L 1156.0 289.0 L 1132.0 294.0 L 1127.0 297.0 L 1107.0 302.0 L 1087.0 310.0 L 1080.0 311.0 L 1034.0 326.0 L 1026.0 327.0 L 1013.0 333.0 L 994.0 338.0 L 985.0 342.0 L 981.0 342.0 L 947.0 356.0 L 904.0 370.0 L 883.0 380.0 L 873.0 382.0 L 843.0 394.0 L 839.0 397.0 L 829.0 399.0 L 816.0 406.0 L 781.0 418.0 L 733.0 439.0 L 725.0 444.0 L 719.0 445.0 L 704.0 453.0 L 682.0 461.0 L 616.0 493.0 L 611.0 494.0 L 592.0 505.0 L 545.0 526.0 L 528.0 536.0 L 490.0 554.0 L 487.0 557.0 L 482.0 558.0 L 463.0 569.0 L 450.0 574.0 L 439.0 582.0 L 428.0 586.0 L 404.0 601.0 L 393.0 605.0 L 368.0 620.0 L 364.0 621.0 L 361.0 624.0 L 353.0 627.0 L 339.0 637.0 L 321.0 645.0 L 303.0 657.0 L 283.0 666.0 L 279.0 670.0 L 270.0 674.0 L 262.0 680.0 L 255.0 682.0 L 252.0 685.0 L 238.0 691.0 L 228.0 698.0 L 224.0 699.0 L 221.0 697.0 L 241.0 681.0 L 251.0 676.0 L 265.0 663.0 L 271.0 661.0 L 285.0 650.0 L 309.0 636.0 L 322.0 626.0 L 333.0 622.0 L 342.0 614.0 L 349.0 611.0 L 424.0 563.0 L 438.0 557.0 L 458.0 543.0 L 487.0 528.0 L 504.0 517.0 L 516.0 512.0 L 538.0 498.0 L 549.0 494.0 L 554.0 489.0 L 576.0 479.0 L 593.0 468.0 L 611.0 460.0 L 619.0 454.0 L 644.0 443.0 L 683.0 422.0 L 692.0 419.0 L 709.0 409.0 L 743.0 393.0 L 748.0 389.0 L 763.0 384.0 L 778.0 375.0 L 781.0 375.0 L 794.0 368.0 L 805.0 365.0 L 811.0 360.0 L 831.0 352.0 L 842.0 345.0 L 847.0 344.0 L 860.0 337.0 L 868.0 335.0 L 877.0 329.0 L 885.0 327.0 L 908.0 316.0 L 932.0 307.0 L 972.0 287.0 L 983.0 284.0 L 1003.0 274.0 L 1023.0 268.0 L 1048.0 256.0 L 1063.0 252.0 L 1066.0 249.0 L 1078.0 244.0 L 1087.0 242.0 L 1089.0 240.0 L 1106.0 235.0 L 1116.0 230.0 L 1128.0 227.0 L 1130.0 225.0 L 1148.0 219.0 L 1152.0 216.0 L 1170.0 211.0 L 1174.0 208.0 L 1189.0 204.0 L 1195.0 200.0 L 1199.0 200.0 L 1210.0 195.0 L 1223.0 192.0 L 1242.0 184.0 L 1276.0 174.0 L 1291.0 168.0 L 1295.0 168.0 L 1300.0 165.0 L 1343.0 152.0 L 1366.0 143.0 L 1371.0 143.0 L 1396.0 136.0 L 1408.0 131.0 L 1415.0 130.0 L 1420.0 127.0 L 1439.0 123.0 L 1450.0 118.0 L 1454.0 118.0 L 1470.0 112.0 L 1479.0 111.0 L 1482.0 109.0 L 1508.0 103.0 L 1525.0 97.0 L 1542.0 94.0 L 1564.0 87.0 L 1588.0 83.0 L 1599.0 79.0 L 1638.0 71.0 L 1644.0 68.0 L 1680.0 62.0 L 1688.0 59.0 L 1718.0 54.0 L 1726.0 51.0 L 1734.0 51.0 L 1739.0 49.0 L 1766.0 46.0 L 1771.0 44.0 L 1780.0 44.0 L 1795.0 40.0 L 1810.0 39.0 L 1877.0 28.0 L 1887.0 28.0 L 1919.0 23.0 L 1942.0 22.0 L 1960.0 19.0 L 2050.0 12.0 L 2181.0 10.0 L 2241.0 13.0 L 2257.0 19.0 L 2270.0 28.0 L 2285.0 43.0 L 2296.0 48.0 L 2306.0 60.0 L 2312.0 64.0 L 2321.0 74.0 Z"></path>
<path d="M 1833.0 625.0 L 1829.0 622.0 L 1828.0 617.0 L 1822.0 616.0 L 1813.0 608.0 L 1810.0 608.0 L 1805.0 604.0 L 1801.0 604.0 L 1797.0 600.0 L 1774.0 600.0 L 1764.0 596.0 L 1747.0 597.0 L 1688.0 595.0 L 1657.0 596.0 L 1652.0 599.0 L 1639.0 600.0 L 1583.0 600.0 L 1578.0 604.0 L 1560.0 604.0 L 1548.0 608.0 L 1511.0 608.0 L 1506.0 612.0 L 1497.0 612.0 L 1482.0 616.0 L 1465.0 616.0 L 1462.0 619.0 L 1454.0 620.0 L 1451.0 623.0 L 1425.0 624.0 L 1420.0 628.0 L 1401.0 628.0 L 1395.0 632.0 L 1388.0 632.0 L 1383.0 636.0 L 1364.0 636.0 L 1359.0 640.0 L 1345.0 640.0 L 1339.0 644.0 L 1333.0 644.0 L 1328.0 648.0 L 1312.0 648.0 L 1308.0 652.0 L 1293.0 652.0 L 1287.0 656.0 L 1279.0 656.0 L 1272.0 659.0 L 1270.0 657.0 L 1273.0 651.0 L 1272.0 640.0 L 1271.0 642.0 L 1269.0 641.0 L 1269.0 653.0 L 1267.0 656.0 L 1265.0 656.0 L 1265.0 661.0 L 1267.0 663.0 L 1259.0 665.0 L 1259.0 667.0 L 1268.0 669.0 L 1283.0 666.0 L 1303.0 660.0 L 1317.0 658.0 L 1322.0 655.0 L 1332.0 655.0 L 1354.0 648.0 L 1366.0 647.0 L 1378.0 643.0 L 1392.0 642.0 L 1409.0 637.0 L 1422.0 636.0 L 1437.0 631.0 L 1456.0 630.0 L 1473.0 624.0 L 1503.0 622.0 L 1516.0 617.0 L 1563.0 614.0 L 1601.0 608.0 L 1642.0 608.0 L 1682.0 604.0 L 1695.0 604.0 L 1705.0 606.0 L 1738.0 605.0 L 1765.0 606.0 L 1769.0 608.0 L 1790.0 608.0 L 1801.0 612.0 L 1808.0 618.0 L 1813.0 620.0 L 1821.0 627.0 L 1823.0 631.0 L 1822.0 651.0 L 1817.0 668.0 L 1813.0 676.0 L 1807.0 682.0 L 1802.0 697.0 L 1793.0 711.0 L 1781.0 725.0 L 1773.0 730.0 L 1769.0 730.0 L 1759.0 726.0 L 1752.0 726.0 L 1715.0 719.0 L 1707.0 719.0 L 1700.0 717.0 L 1674.0 717.0 L 1666.0 715.0 L 1641.0 716.0 L 1631.0 714.0 L 1570.0 714.0 L 1552.0 716.0 L 1514.0 715.0 L 1489.0 718.0 L 1474.0 718.0 L 1397.0 726.0 L 1355.0 728.0 L 1332.0 734.0 L 1290.0 738.0 L 1285.0 741.0 L 1277.0 743.0 L 1257.0 744.0 L 1242.0 749.0 L 1226.0 750.0 L 1208.0 755.0 L 1195.0 756.0 L 1177.0 762.0 L 1167.0 762.0 L 1155.0 766.0 L 1132.0 769.0 L 1123.0 773.0 L 1111.0 774.0 L 1104.0 777.0 L 1088.0 779.0 L 1076.0 783.0 L 1036.0 791.0 L 1029.0 794.0 L 1000.0 798.0 L 995.0 800.0 L 986.0 800.0 L 971.0 804.0 L 953.0 806.0 L 952.0 804.0 L 936.0 800.0 L 937.0 793.0 L 935.0 790.0 L 932.0 790.0 L 930.0 788.0 L 933.0 785.0 L 939.0 783.0 L 941.0 780.0 L 947.0 779.0 L 953.0 775.0 L 961.0 773.0 L 966.0 769.0 L 976.0 765.0 L 981.0 760.0 L 990.0 758.0 L 1004.0 752.0 L 1008.0 752.0 L 1018.0 746.0 L 1033.0 740.0 L 1061.0 732.0 L 1067.0 728.0 L 1088.0 722.0 L 1090.0 720.0 L 1123.0 711.0 L 1142.0 701.0 L 1143.0 699.0 L 1138.0 700.0 L 1136.0 698.0 L 1136.0 683.0 L 1138.0 676.0 L 1140.0 679.0 L 1140.0 656.0 L 1142.0 653.0 L 1144.0 655.0 L 1143.0 636.0 L 1140.0 641.0 L 1140.0 654.0 L 1136.0 659.0 L 1136.0 679.0 L 1133.0 682.0 L 1132.0 697.0 L 1129.0 700.0 L 1122.0 700.0 L 1118.0 704.0 L 1111.0 704.0 L 1104.0 708.0 L 1094.0 708.0 L 1090.0 712.0 L 1081.0 712.0 L 1075.0 716.0 L 1069.0 716.0 L 1067.0 719.0 L 1060.0 720.0 L 1055.0 724.0 L 1046.0 724.0 L 1042.0 728.0 L 1034.0 728.0 L 1028.0 732.0 L 1023.0 732.0 L 1012.0 739.0 L 1005.0 740.0 L 1001.0 744.0 L 991.0 744.0 L 986.0 748.0 L 980.0 748.0 L 977.0 751.0 L 971.0 752.0 L 968.0 755.0 L 959.0 756.0 L 949.0 764.0 L 940.0 764.0 L 935.0 768.0 L 930.0 768.0 L 924.0 772.0 L 920.0 772.0 L 917.0 776.0 L 910.0 776.0 L 899.0 780.0 L 893.0 784.0 L 890.0 784.0 L 888.0 787.0 L 882.0 788.0 L 878.0 792.0 L 873.0 792.0 L 869.0 796.0 L 862.0 796.0 L 858.0 800.0 L 853.0 800.0 L 849.0 804.0 L 846.0 804.0 L 841.0 808.0 L 833.0 808.0 L 824.0 815.0 L 818.0 816.0 L 814.0 820.0 L 809.0 820.0 L 806.0 824.0 L 801.0 824.0 L 798.0 828.0 L 794.0 828.0 L 790.0 832.0 L 785.0 832.0 L 774.0 840.0 L 766.0 841.0 L 758.0 848.0 L 752.0 848.0 L 747.0 852.0 L 743.0 852.0 L 738.0 856.0 L 735.0 856.0 L 732.0 859.0 L 725.0 861.0 L 710.0 872.0 L 705.0 872.0 L 694.0 880.0 L 691.0 880.0 L 686.0 884.0 L 682.0 884.0 L 679.0 888.0 L 674.0 888.0 L 666.0 896.0 L 659.0 900.0 L 656.0 900.0 L 652.0 904.0 L 648.0 904.0 L 640.0 911.0 L 636.0 912.0 L 628.0 920.0 L 625.0 920.0 L 617.0 924.0 L 593.0 946.0 L 593.0 949.0 L 599.0 952.0 L 609.0 947.0 L 625.0 945.0 L 649.0 933.0 L 652.0 929.0 L 660.0 929.0 L 674.0 921.0 L 680.0 921.0 L 683.0 917.0 L 693.0 913.0 L 696.0 910.0 L 704.0 909.0 L 707.0 905.0 L 714.0 905.0 L 716.0 903.0 L 724.0 901.0 L 728.0 897.0 L 735.0 897.0 L 740.0 894.0 L 743.0 894.0 L 748.0 889.0 L 756.0 889.0 L 766.0 881.0 L 775.0 881.0 L 780.0 877.0 L 786.0 877.0 L 790.0 873.0 L 797.0 873.0 L 802.0 869.0 L 808.0 869.0 L 811.0 865.0 L 822.0 865.0 L 828.0 861.0 L 833.0 861.0 L 837.0 857.0 L 847.0 857.0 L 849.0 854.0 L 855.0 853.0 L 859.0 849.0 L 869.0 849.0 L 874.0 845.0 L 884.0 845.0 L 889.0 841.0 L 897.0 841.0 L 902.0 837.0 L 911.0 837.0 L 915.0 833.0 L 925.0 833.0 L 932.0 829.0 L 939.0 829.0 L 945.0 826.0 L 954.0 825.0 L 959.0 821.0 L 967.0 821.0 L 971.0 817.0 L 981.0 817.0 L 984.0 814.0 L 997.0 813.0 L 1002.0 809.0 L 1016.0 809.0 L 1022.0 805.0 L 1029.0 805.0 L 1034.0 801.0 L 1053.0 800.0 L 1058.0 797.0 L 1062.0 797.0 L 1067.0 793.0 L 1082.0 793.0 L 1084.0 790.0 L 1092.0 789.0 L 1095.0 786.0 L 1110.0 785.0 L 1113.0 782.0 L 1119.0 783.0 L 1122.0 781.0 L 1131.0 781.0 L 1135.0 777.0 L 1154.0 777.0 L 1159.0 773.0 L 1168.0 773.0 L 1174.0 769.0 L 1189.0 769.0 L 1194.0 765.0 L 1211.0 765.0 L 1217.0 761.0 L 1225.0 761.0 L 1238.0 757.0 L 1250.0 757.0 L 1253.0 754.0 L 1257.0 753.0 L 1278.0 753.0 L 1286.0 749.0 L 1295.0 749.0 L 1301.0 745.0 L 1328.0 745.0 L 1336.0 741.0 L 1345.0 741.0 L 1350.0 737.0 L 1382.0 737.0 L 1387.0 733.0 L 1429.0 733.0 L 1443.0 729.0 L 1473.0 729.0 L 1478.0 727.0 L 1484.0 728.0 L 1490.0 725.0 L 1521.0 725.0 L 1526.0 723.0 L 1536.0 725.0 L 1559.0 725.0 L 1572.0 722.0 L 1589.0 725.0 L 1695.0 725.0 L 1708.0 729.0 L 1727.0 729.0 L 1731.0 733.0 L 1747.0 733.0 L 1754.0 737.0 L 1763.0 737.0 L 1766.0 739.0 L 1782.0 737.0 L 1787.0 730.0 L 1793.0 728.0 L 1793.0 726.0 L 1797.0 722.0 L 1797.0 719.0 L 1809.0 707.0 L 1809.0 703.0 L 1813.0 699.0 L 1813.0 693.0 L 1817.0 687.0 L 1818.0 682.0 L 1825.0 676.0 L 1825.0 671.0 L 1829.0 666.0 L 1829.0 654.0 L 1831.0 651.0 L 1831.0 646.0 L 1833.0 644.0 Z M 641.0 921.0 L 648.0 916.0 L 650.0 918.0 L 655.0 919.0 L 653.0 922.0 L 649.0 923.0 Z M 797.0 865.0 L 796.0 867.0 L 791.0 866.0 L 796.0 864.0 Z M 761.0 877.0 L 757.0 879.0 L 754.0 883.0 L 746.0 884.0 L 744.0 887.0 L 734.0 888.0 L 732.0 891.0 L 724.0 892.0 L 721.0 895.0 L 714.0 896.0 L 712.0 899.0 L 706.0 899.0 L 701.0 903.0 L 694.0 904.0 L 690.0 907.0 L 682.0 908.0 L 677.0 906.0 L 680.0 908.0 L 679.0 911.0 L 673.0 910.0 L 671.0 913.0 L 664.0 917.0 L 656.0 917.0 L 663.0 910.0 L 663.0 907.0 L 667.0 903.0 L 671.0 903.0 L 672.0 900.0 L 679.0 895.0 L 698.0 886.0 L 699.0 882.0 L 703.0 882.0 L 707.0 878.0 L 712.0 878.0 L 715.0 874.0 L 720.0 874.0 L 728.0 867.0 L 733.0 866.0 L 737.0 862.0 L 740.0 862.0 L 744.0 859.0 L 746.0 860.0 L 745.0 867.0 L 729.0 874.0 L 727.0 877.0 L 725.0 877.0 L 725.0 880.0 L 734.0 885.0 L 741.0 884.0 L 749.0 876.0 Z M 854.0 846.0 L 847.0 848.0 L 843.0 851.0 L 833.0 852.0 L 831.0 855.0 L 823.0 856.0 L 820.0 859.0 L 810.0 858.0 L 817.0 853.0 L 828.0 852.0 L 834.0 849.0 L 842.0 848.0 L 846.0 845.0 Z M 898.0 832.0 L 896.0 835.0 L 887.0 836.0 L 883.0 839.0 L 870.0 839.0 L 874.0 833.0 L 889.0 832.0 L 894.0 830.0 Z M 911.0 829.0 L 909.0 831.0 L 898.0 831.0 L 901.0 829.0 Z M 812.0 828.0 L 803.0 840.0 L 792.0 841.0 L 776.0 849.0 L 768.0 849.0 L 772.0 846.0 L 776.0 846.0 L 780.0 842.0 L 785.0 841.0 L 787.0 838.0 L 793.0 837.0 L 796.0 834.0 L 801.0 833.0 L 803.0 830.0 L 807.0 830.0 L 810.0 827.0 Z M 935.0 822.0 L 937.0 820.0 L 939.0 821.0 L 937.0 823.0 Z M 938.0 820.0 L 940.0 818.0 L 948.0 819.0 L 941.0 821.0 Z M 872.0 802.0 L 868.0 804.0 L 865.0 808.0 L 857.0 810.0 L 856.0 812.0 L 853.0 812.0 L 846.0 816.0 L 837.0 817.0 L 829.0 821.0 L 827.0 820.0 L 837.0 814.0 L 841.0 814.0 L 853.0 809.0 L 855.0 806.0 L 861.0 805.0 L 863.0 802.0 Z M 909.0 785.0 L 905.0 789.0 L 902.0 789.0 L 900.0 793.0 L 896.0 793.0 L 886.0 797.0 L 882.0 796.0 L 883.0 794.0 L 889.0 793.0 L 892.0 789.0 L 896.0 789.0 L 901.0 785.0 Z M 928.0 776.0 L 930.0 774.0 L 934.0 775.0 L 931.0 777.0 Z M 951.0 767.0 L 953.0 765.0 L 959.0 766.0 L 957.0 768.0 Z M 965.0 762.0 L 960.0 766.0 L 958.0 765.0 L 960.0 762.0 Z M 989.0 752.0 L 991.0 749.0 L 1001.0 750.0 L 996.0 753.0 Z M 1057.0 728.0 L 1058.0 725.0 L 1064.0 726.0 L 1060.0 729.0 Z M 1119.0 707.0 L 1122.0 704.0 L 1126.0 706.0 L 1122.0 708.0 Z"></path>
<path d="M 1569.0 1124.0 L 1565.0 1118.0 L 1565.0 1113.0 L 1553.0 1102.0 L 1553.0 1096.0 L 1551.0 1096.0 L 1543.0 1088.0 L 1537.0 1087.0 L 1531.0 1080.0 L 1525.0 1080.0 L 1519.0 1076.0 L 1503.0 1077.0 L 1496.0 1080.0 L 1428.0 1080.0 L 1422.0 1084.0 L 1401.0 1084.0 L 1390.0 1088.0 L 1368.0 1088.0 L 1360.0 1092.0 L 1343.0 1092.0 L 1338.0 1096.0 L 1316.0 1096.0 L 1311.0 1100.0 L 1302.0 1100.0 L 1299.0 1103.0 L 1295.0 1104.0 L 1276.0 1104.0 L 1272.0 1108.0 L 1263.0 1108.0 L 1257.0 1112.0 L 1241.0 1112.0 L 1238.0 1116.0 L 1219.0 1116.0 L 1214.0 1120.0 L 1203.0 1120.0 L 1197.0 1124.0 L 1193.0 1122.0 L 1192.0 1106.0 L 1191.0 1113.0 L 1189.0 1107.0 L 1188.0 1125.0 L 1192.0 1128.0 L 1188.0 1133.0 L 1184.0 1134.0 L 1190.0 1134.0 L 1195.0 1131.0 L 1213.0 1128.0 L 1227.0 1123.0 L 1237.0 1123.0 L 1245.0 1120.0 L 1263.0 1118.0 L 1280.0 1112.0 L 1304.0 1110.0 L 1311.0 1107.0 L 1326.0 1104.0 L 1343.0 1103.0 L 1354.0 1099.0 L 1374.0 1098.0 L 1386.0 1095.0 L 1415.0 1093.0 L 1420.0 1091.0 L 1468.0 1090.0 L 1477.0 1088.0 L 1515.0 1085.0 L 1524.0 1088.0 L 1526.0 1091.0 L 1543.0 1101.0 L 1555.0 1118.0 L 1558.0 1126.0 L 1558.0 1134.0 L 1560.0 1139.0 L 1562.0 1157.0 L 1564.0 1161.0 L 1564.0 1169.0 L 1561.0 1176.0 L 1553.0 1185.0 L 1543.0 1193.0 L 1537.0 1195.0 L 1516.0 1208.0 L 1511.0 1236.0 L 1500.0 1255.0 L 1492.0 1262.0 L 1484.0 1261.0 L 1471.0 1250.0 L 1450.0 1246.0 L 1444.0 1242.0 L 1420.0 1234.0 L 1376.0 1229.0 L 1353.0 1229.0 L 1350.0 1227.0 L 1331.0 1224.0 L 1356.0 1216.0 L 1382.0 1215.0 L 1416.0 1211.0 L 1428.0 1206.0 L 1435.0 1206.0 L 1448.0 1203.0 L 1480.0 1202.0 L 1486.0 1198.0 L 1486.0 1196.0 L 1478.0 1189.0 L 1456.0 1181.0 L 1418.0 1177.0 L 1414.0 1175.0 L 1395.0 1175.0 L 1384.0 1173.0 L 1328.0 1173.0 L 1287.0 1177.0 L 1257.0 1178.0 L 1225.0 1182.0 L 1215.0 1186.0 L 1151.0 1191.0 L 1134.0 1195.0 L 1128.0 1198.0 L 1099.0 1200.0 L 1085.0 1204.0 L 1062.0 1206.0 L 1043.0 1212.0 L 1033.0 1212.0 L 1013.0 1217.0 L 1004.0 1217.0 L 990.0 1223.0 L 974.0 1226.0 L 967.0 1230.0 L 949.0 1234.0 L 922.0 1244.0 L 902.0 1246.0 L 896.0 1248.0 L 893.0 1245.0 L 895.0 1241.0 L 906.0 1234.0 L 911.0 1233.0 L 926.0 1224.0 L 932.0 1223.0 L 935.0 1220.0 L 953.0 1212.0 L 959.0 1211.0 L 972.0 1204.0 L 990.0 1199.0 L 1001.0 1193.0 L 1022.0 1187.0 L 1042.0 1178.0 L 1058.0 1175.0 L 1067.0 1170.0 L 1087.0 1164.0 L 1091.0 1160.0 L 1091.0 1158.0 L 1085.0 1161.0 L 1082.0 1160.0 L 1085.0 1157.0 L 1083.0 1144.0 L 1080.0 1148.0 L 1079.0 1156.0 L 1074.0 1160.0 L 1067.0 1160.0 L 1064.0 1163.0 L 1056.0 1164.0 L 1051.0 1168.0 L 1047.0 1168.0 L 1042.0 1172.0 L 1033.0 1172.0 L 1027.0 1176.0 L 1020.0 1176.0 L 1016.0 1180.0 L 1009.0 1180.0 L 1004.0 1184.0 L 997.0 1184.0 L 991.0 1188.0 L 987.0 1188.0 L 982.0 1192.0 L 976.0 1192.0 L 973.0 1196.0 L 968.0 1196.0 L 966.0 1198.0 L 956.0 1200.0 L 951.0 1204.0 L 944.0 1204.0 L 940.0 1208.0 L 934.0 1208.0 L 929.0 1212.0 L 922.0 1212.0 L 918.0 1216.0 L 912.0 1216.0 L 910.0 1219.0 L 905.0 1220.0 L 902.0 1224.0 L 891.0 1224.0 L 888.0 1227.0 L 883.0 1228.0 L 877.0 1232.0 L 874.0 1236.0 L 866.0 1236.0 L 864.0 1239.0 L 859.0 1240.0 L 855.0 1244.0 L 849.0 1244.0 L 845.0 1248.0 L 840.0 1248.0 L 837.0 1251.0 L 832.0 1251.0 L 826.0 1256.0 L 823.0 1256.0 L 811.0 1264.0 L 807.0 1264.0 L 802.0 1268.0 L 796.0 1268.0 L 791.0 1272.0 L 786.0 1272.0 L 778.0 1280.0 L 764.0 1284.0 L 751.0 1292.0 L 745.0 1292.0 L 742.0 1296.0 L 738.0 1296.0 L 734.0 1300.0 L 731.0 1300.0 L 729.0 1303.0 L 724.0 1304.0 L 716.0 1311.0 L 709.0 1312.0 L 701.0 1316.0 L 698.0 1320.0 L 694.0 1320.0 L 686.0 1327.0 L 681.0 1328.0 L 678.0 1332.0 L 672.0 1332.0 L 663.0 1340.0 L 656.0 1344.0 L 653.0 1344.0 L 644.0 1351.0 L 638.0 1352.0 L 629.0 1360.0 L 624.0 1360.0 L 621.0 1363.0 L 617.0 1364.0 L 614.0 1368.0 L 610.0 1369.0 L 603.0 1376.0 L 598.0 1376.0 L 591.0 1380.0 L 589.0 1383.0 L 582.0 1384.0 L 571.0 1392.0 L 567.0 1392.0 L 564.0 1395.0 L 554.0 1399.0 L 550.0 1404.0 L 545.0 1406.0 L 541.0 1415.0 L 532.0 1420.0 L 529.0 1425.0 L 522.0 1424.0 L 518.0 1429.0 L 518.0 1432.0 L 522.0 1429.0 L 527.0 1429.0 L 530.0 1425.0 L 542.0 1425.0 L 547.0 1419.0 L 551.0 1417.0 L 559.0 1417.0 L 566.0 1413.0 L 569.0 1413.0 L 572.0 1410.0 L 583.0 1405.0 L 586.0 1401.0 L 591.0 1400.0 L 596.0 1394.0 L 600.0 1393.0 L 605.0 1389.0 L 608.0 1389.0 L 619.0 1381.0 L 627.0 1381.0 L 633.0 1377.0 L 636.0 1377.0 L 652.0 1365.0 L 660.0 1365.0 L 663.0 1362.0 L 669.0 1361.0 L 675.0 1357.0 L 680.0 1357.0 L 685.0 1353.0 L 690.0 1353.0 L 694.0 1349.0 L 698.0 1349.0 L 702.0 1345.0 L 707.0 1345.0 L 712.0 1341.0 L 716.0 1341.0 L 722.0 1337.0 L 727.0 1337.0 L 732.0 1333.0 L 737.0 1333.0 L 739.0 1330.0 L 745.0 1329.0 L 750.0 1325.0 L 757.0 1325.0 L 767.0 1317.0 L 775.0 1317.0 L 779.0 1313.0 L 784.0 1313.0 L 793.0 1305.0 L 802.0 1305.0 L 811.0 1297.0 L 818.0 1297.0 L 821.0 1294.0 L 829.0 1293.0 L 834.0 1289.0 L 838.0 1289.0 L 842.0 1285.0 L 848.0 1285.0 L 851.0 1281.0 L 858.0 1281.0 L 861.0 1278.0 L 868.0 1277.0 L 871.0 1273.0 L 882.0 1273.0 L 886.0 1269.0 L 889.0 1269.0 L 891.0 1266.0 L 899.0 1265.0 L 903.0 1261.0 L 909.0 1261.0 L 914.0 1257.0 L 923.0 1257.0 L 928.0 1253.0 L 933.0 1253.0 L 937.0 1249.0 L 944.0 1249.0 L 946.0 1246.0 L 954.0 1245.0 L 959.0 1241.0 L 967.0 1241.0 L 971.0 1237.0 L 979.0 1237.0 L 983.0 1233.0 L 993.0 1233.0 L 998.0 1229.0 L 1004.0 1229.0 L 1010.0 1225.0 L 1022.0 1225.0 L 1028.0 1221.0 L 1049.0 1221.0 L 1054.0 1217.0 L 1062.0 1217.0 L 1065.0 1214.0 L 1069.0 1213.0 L 1091.0 1213.0 L 1095.0 1209.0 L 1114.0 1209.0 L 1125.0 1205.0 L 1140.0 1205.0 L 1145.0 1201.0 L 1169.0 1197.0 L 1200.0 1197.0 L 1204.0 1195.0 L 1224.0 1193.0 L 1228.0 1189.0 L 1252.0 1189.0 L 1262.0 1185.0 L 1301.0 1185.0 L 1311.0 1181.0 L 1390.0 1181.0 L 1394.0 1184.0 L 1406.0 1183.0 L 1410.0 1185.0 L 1431.0 1186.0 L 1436.0 1189.0 L 1451.0 1189.0 L 1455.0 1192.0 L 1452.0 1195.0 L 1428.0 1196.0 L 1424.0 1199.0 L 1412.0 1200.0 L 1407.0 1204.0 L 1379.0 1204.0 L 1375.0 1207.0 L 1369.0 1208.0 L 1345.0 1208.0 L 1342.0 1212.0 L 1319.0 1212.0 L 1303.0 1216.0 L 1279.0 1216.0 L 1272.0 1220.0 L 1263.0 1220.0 L 1256.0 1224.0 L 1249.0 1224.0 L 1243.0 1232.0 L 1243.0 1238.0 L 1245.0 1241.0 L 1252.0 1245.0 L 1255.0 1245.0 L 1259.0 1242.0 L 1264.0 1243.0 L 1270.0 1241.0 L 1301.0 1241.0 L 1312.0 1237.0 L 1371.0 1237.0 L 1379.0 1241.0 L 1405.0 1241.0 L 1412.0 1242.0 L 1417.0 1245.0 L 1427.0 1246.0 L 1431.0 1249.0 L 1436.0 1249.0 L 1440.0 1253.0 L 1447.0 1253.0 L 1452.0 1257.0 L 1462.0 1257.0 L 1467.0 1261.0 L 1470.0 1261.0 L 1473.0 1265.0 L 1478.0 1265.0 L 1481.0 1269.0 L 1486.0 1269.0 L 1489.0 1272.0 L 1493.0 1273.0 L 1500.0 1269.0 L 1509.0 1260.0 L 1509.0 1255.0 L 1513.0 1253.0 L 1513.0 1248.0 L 1521.0 1238.0 L 1521.0 1227.0 L 1525.0 1223.0 L 1525.0 1215.0 L 1531.0 1209.0 L 1538.0 1205.0 L 1541.0 1205.0 L 1545.0 1201.0 L 1548.0 1201.0 L 1551.0 1197.0 L 1554.0 1197.0 L 1565.0 1187.0 L 1573.0 1177.0 L 1573.0 1154.0 L 1569.0 1150.0 Z M 634.0 1365.0 L 636.0 1362.0 L 641.0 1363.0 L 638.0 1366.0 Z M 655.0 1356.0 L 654.0 1359.0 L 650.0 1359.0 L 645.0 1363.0 L 642.0 1362.0 L 643.0 1358.0 L 647.0 1358.0 L 651.0 1354.0 Z M 786.0 1302.0 L 782.0 1306.0 L 777.0 1307.0 L 774.0 1310.0 L 770.0 1309.0 L 775.0 1305.0 L 779.0 1305.0 L 783.0 1301.0 Z M 785.0 1301.0 L 787.0 1299.0 L 789.0 1300.0 L 787.0 1302.0 Z M 808.0 1294.0 L 802.0 1296.0 L 799.0 1299.0 L 788.0 1299.0 L 790.0 1297.0 L 797.0 1296.0 L 802.0 1293.0 Z M 772.0 1291.0 L 759.0 1301.0 L 750.0 1302.0 L 746.0 1306.0 L 746.0 1311.0 L 748.0 1313.0 L 763.0 1311.0 L 764.0 1312.0 L 761.0 1315.0 L 758.0 1315.0 L 753.0 1319.0 L 747.0 1319.0 L 742.0 1323.0 L 740.0 1320.0 L 734.0 1327.0 L 727.0 1328.0 L 725.0 1331.0 L 714.0 1332.0 L 711.0 1335.0 L 707.0 1335.0 L 703.0 1339.0 L 699.0 1339.0 L 696.0 1342.0 L 689.0 1343.0 L 684.0 1347.0 L 680.0 1347.0 L 674.0 1343.0 L 676.0 1338.0 L 680.0 1338.0 L 682.0 1335.0 L 688.0 1335.0 L 691.0 1330.0 L 694.0 1330.0 L 703.0 1322.0 L 706.0 1322.0 L 711.0 1318.0 L 719.0 1317.0 L 722.0 1314.0 L 724.0 1314.0 L 727.0 1310.0 L 730.0 1310.0 L 734.0 1306.0 L 738.0 1305.0 L 739.0 1302.0 L 743.0 1302.0 L 747.0 1298.0 L 753.0 1298.0 L 758.0 1294.0 L 764.0 1293.0 L 767.0 1290.0 Z M 857.0 1274.0 L 849.0 1276.0 L 847.0 1279.0 L 840.0 1280.0 L 837.0 1283.0 L 833.0 1282.0 L 839.0 1276.0 L 842.0 1276.0 L 846.0 1273.0 Z M 1496.0 1264.0 L 1494.0 1267.0 L 1491.0 1268.0 L 1487.0 1265.0 L 1493.0 1263.0 Z M 872.0 1267.0 L 876.0 1263.0 L 883.0 1264.0 L 881.0 1268.0 Z M 839.0 1258.0 L 826.0 1269.0 L 815.0 1267.0 L 823.0 1265.0 L 825.0 1262.0 L 829.0 1261.0 L 832.0 1258.0 Z M 1502.0 1257.0 L 1503.0 1256.0 L 1504.0 1258.0 L 1503.0 1259.0 Z M 840.0 1256.0 L 841.0 1254.0 L 844.0 1255.0 L 841.0 1257.0 Z M 873.0 1243.0 L 869.0 1249.0 L 858.0 1249.0 L 860.0 1246.0 L 865.0 1245.0 L 867.0 1242.0 Z M 1301.0 1234.0 L 1288.0 1236.0 L 1257.0 1237.0 L 1255.0 1239.0 L 1252.0 1239.0 L 1249.0 1235.0 L 1249.0 1232.0 L 1251.0 1230.0 L 1262.0 1228.0 L 1265.0 1225.0 L 1272.0 1225.0 L 1281.0 1221.0 L 1292.0 1221.0 L 1292.0 1224.0 L 1288.0 1225.0 L 1286.0 1223.0 L 1285.0 1227.0 L 1293.0 1232.0 L 1298.0 1230.0 Z M 925.0 1218.0 L 930.0 1218.0 L 927.0 1220.0 Z M 1131.0 1199.0 L 1134.0 1197.0 L 1141.0 1198.0 L 1138.0 1200.0 Z M 975.0 1199.0 L 977.0 1197.0 L 981.0 1198.0 L 977.0 1200.0 Z M 1568.0 1165.0 L 1569.0 1169.0 L 1566.0 1177.0 L 1565.0 1172.0 L 1566.0 1167.0 Z"></path>
<path d="M 1169.0 1280.0 L 1162.0 1280.0 L 1160.0 1282.0 L 1160.0 1285.0 L 1156.0 1289.0 L 1155.0 1305.0 L 1152.0 1311.0 L 1152.0 1360.0 L 1148.0 1379.0 L 1148.0 1474.0 L 1152.0 1483.0 L 1152.0 1499.0 L 1154.0 1503.0 L 1156.0 1502.0 L 1158.0 1491.0 L 1161.0 1486.0 L 1161.0 1459.0 L 1164.0 1455.0 L 1166.0 1431.0 L 1165.0 1404.0 L 1166.0 1396.0 L 1169.0 1390.0 L 1169.0 1350.0 L 1173.0 1341.0 L 1173.0 1298.0 L 1172.0 1308.0 L 1170.0 1308.0 L 1170.0 1292.0 L 1173.0 1292.0 L 1173.0 1284.0 Z M 1167.0 1286.0 L 1169.0 1291.0 L 1169.0 1345.0 L 1167.0 1357.0 L 1165.0 1348.0 L 1165.0 1392.0 L 1163.0 1395.0 L 1161.0 1394.0 L 1160.0 1400.0 L 1160.0 1447.0 L 1157.0 1449.0 L 1155.0 1455.0 L 1153.0 1436.0 L 1153.0 1416.0 L 1156.0 1416.0 L 1156.0 1408.0 L 1153.0 1408.0 L 1152.0 1381.0 L 1153.0 1368.0 L 1154.0 1367.0 L 1156.0 1370.0 L 1157.0 1359.0 L 1156.0 1312.0 L 1157.0 1307.0 L 1160.0 1306.0 L 1160.0 1288.0 L 1162.0 1286.0 Z"></path>
<path d="M 1140.0 1276.0 L 1111.0 1276.0 L 1103.0 1280.0 L 1081.0 1280.0 L 1078.0 1284.0 L 1076.0 1284.0 L 1074.0 1299.0 L 1072.0 1301.0 L 1072.0 1392.0 L 1074.0 1384.0 L 1076.0 1392.0 L 1076.0 1291.0 L 1078.0 1289.0 L 1080.0 1290.0 L 1083.0 1285.0 L 1102.0 1284.0 L 1097.0 1282.0 L 1105.0 1280.0 L 1139.0 1280.0 L 1140.0 1283.0 L 1144.0 1286.0 L 1144.0 1331.0 L 1142.0 1331.0 L 1141.0 1324.0 L 1141.0 1362.0 L 1140.0 1370.0 L 1139.0 1371.0 L 1137.0 1368.0 L 1136.0 1382.0 L 1137.0 1423.0 L 1135.0 1432.0 L 1133.0 1426.0 L 1133.0 1456.0 L 1129.0 1462.0 L 1128.0 1469.0 L 1128.0 1511.0 L 1126.0 1511.0 L 1125.0 1504.0 L 1124.0 1513.0 L 1125.0 1549.0 L 1120.0 1562.0 L 1120.0 1626.0 L 1117.0 1627.0 L 1116.0 1630.0 L 1115.0 1667.0 L 1121.0 1667.0 L 1121.0 1640.0 L 1125.0 1628.0 L 1125.0 1566.0 L 1129.0 1558.0 L 1129.0 1513.0 L 1132.0 1495.0 L 1131.0 1491.0 L 1133.0 1487.0 L 1133.0 1466.0 L 1137.0 1458.0 L 1138.0 1408.0 L 1141.0 1400.0 L 1141.0 1368.0 L 1144.0 1363.0 L 1142.0 1357.0 L 1145.0 1353.0 L 1145.0 1326.0 L 1147.0 1310.0 L 1149.0 1306.0 L 1149.0 1284.0 Z"></path>
<path d="M 868.0 520.0 L 862.0 520.0 L 851.0 528.0 L 845.0 528.0 L 842.0 532.0 L 837.0 532.0 L 834.0 536.0 L 829.0 536.0 L 826.0 540.0 L 821.0 540.0 L 818.0 544.0 L 813.0 544.0 L 810.0 548.0 L 804.0 548.0 L 801.0 552.0 L 797.0 552.0 L 793.0 556.0 L 789.0 556.0 L 786.0 560.0 L 782.0 560.0 L 780.0 563.0 L 775.0 564.0 L 765.0 572.0 L 762.0 572.0 L 750.0 583.0 L 744.0 584.0 L 733.0 595.0 L 727.0 597.0 L 724.0 603.0 L 716.0 611.0 L 716.0 613.0 L 713.0 616.0 L 705.0 617.0 L 701.0 622.0 L 700.0 626.0 L 690.0 636.0 L 679.0 644.0 L 671.0 645.0 L 672.0 650.0 L 675.0 653.0 L 681.0 653.0 L 684.0 650.0 L 693.0 649.0 L 698.0 645.0 L 702.0 645.0 L 706.0 641.0 L 712.0 641.0 L 716.0 637.0 L 721.0 637.0 L 726.0 633.0 L 731.0 633.0 L 735.0 629.0 L 741.0 629.0 L 745.0 625.0 L 750.0 625.0 L 754.0 621.0 L 758.0 621.0 L 762.0 617.0 L 767.0 617.0 L 771.0 613.0 L 776.0 613.0 L 779.0 609.0 L 788.0 609.0 L 791.0 605.0 L 795.0 605.0 L 797.0 602.0 L 803.0 601.0 L 811.0 594.0 L 805.0 593.0 L 802.0 597.0 L 798.0 597.0 L 798.0 600.0 L 789.0 601.0 L 787.0 604.0 L 779.0 605.0 L 781.0 607.0 L 780.0 608.0 L 772.0 608.0 L 770.0 609.0 L 770.0 612.0 L 762.0 612.0 L 756.0 617.0 L 751.0 617.0 L 750.0 620.0 L 744.0 620.0 L 742.0 624.0 L 733.0 625.0 L 733.0 627.0 L 730.0 629.0 L 724.0 628.0 L 723.0 631.0 L 720.0 633.0 L 714.0 632.0 L 713.0 636.0 L 702.0 636.0 L 701.0 639.0 L 698.0 638.0 L 698.0 635.0 L 705.0 629.0 L 707.0 625.0 L 716.0 621.0 L 717.0 618.0 L 720.0 617.0 L 721.0 614.0 L 728.0 609.0 L 733.0 602.0 L 736.0 601.0 L 739.0 597.0 L 741.0 597.0 L 741.0 595.0 L 746.0 590.0 L 749.0 590.0 L 751.0 588.0 L 751.0 585.0 L 756.0 585.0 L 763.0 577.0 L 766.0 577.0 L 769.0 572.0 L 772.0 573.0 L 775.0 568.0 L 780.0 568.0 L 783.0 564.0 L 787.0 564.0 L 789.0 560.0 L 794.0 560.0 L 795.0 556.0 L 800.0 557.0 L 803.0 552.0 L 808.0 553.0 L 811.0 548.0 L 817.0 548.0 L 819.0 544.0 L 825.0 544.0 L 827.0 540.0 L 833.0 539.0 L 835.0 536.0 L 842.0 536.0 L 843.0 532.0 L 848.0 533.0 L 852.0 528.0 L 859.0 528.0 L 862.0 524.0 L 866.0 524.0 Z"></path>
<path d="M 1071.0 1397.0 L 1071.0 1440.0 L 1069.0 1447.0 L 1071.0 1456.0 L 1069.0 1491.0 L 1071.0 1496.0 L 1072.0 1519.0 L 1070.0 1522.0 L 1070.0 1559.0 L 1072.0 1566.0 L 1072.0 1650.0 L 1075.0 1660.0 L 1075.0 1667.0 L 1081.0 1667.0 L 1081.0 1650.0 L 1078.0 1648.0 L 1077.0 1637.0 L 1076.0 1556.0 L 1075.0 1561.0 L 1073.0 1561.0 L 1073.0 1478.0 Z"></path>
<path d="M 1489.0 806.0 L 1487.0 804.0 L 1480.0 804.0 L 1475.0 800.0 L 1444.0 799.0 L 1405.0 801.0 L 1402.0 803.0 L 1465.0 804.0 L 1475.0 806.0 L 1472.0 809.0 L 1473.0 811.0 L 1471.0 813.0 L 1457.0 813.0 L 1460.0 815.0 L 1456.0 817.0 L 1430.0 817.0 L 1432.0 819.0 L 1431.0 820.0 L 1421.0 821.0 L 1383.0 821.0 L 1385.0 823.0 L 1383.0 825.0 L 1406.0 825.0 L 1414.0 824.0 L 1417.0 822.0 L 1448.0 821.0 L 1451.0 818.0 L 1470.0 817.0 L 1474.0 813.0 L 1485.0 812.0 L 1488.0 810.0 Z"></path>
<path d="M 1637.0 381.0 L 1631.0 378.0 L 1610.0 381.0 L 1589.0 380.0 L 1590.0 382.0 L 1587.0 384.0 L 1595.0 386.0 L 1613.0 387.0 L 1609.0 389.0 L 1582.0 389.0 L 1586.0 391.0 L 1579.0 392.0 L 1577.0 394.0 L 1579.0 395.0 L 1582.0 393.0 L 1609.0 393.0 L 1612.0 390.0 L 1617.0 389.0 L 1635.0 389.0 L 1637.0 387.0 Z"></path>
<path d="M 1179.0 1049.0 L 1176.0 1059.0 L 1176.0 1075.0 L 1172.0 1089.0 L 1173.0 1103.0 L 1171.0 1120.0 L 1169.0 1126.0 L 1166.0 1128.0 L 1165.0 1112.0 L 1163.0 1115.0 L 1161.0 1114.0 L 1160.0 1127.0 L 1164.0 1136.0 L 1156.0 1138.0 L 1159.0 1140.0 L 1166.0 1140.0 L 1178.0 1135.0 L 1169.0 1134.0 L 1173.0 1128.0 L 1172.0 1116.0 L 1174.0 1108.0 L 1176.0 1116.0 L 1176.0 1082.0 L 1177.0 1076.0 L 1180.0 1076.0 L 1181.0 1065.0 L 1179.0 1058.0 Z"></path>
<path d="M 1185.0 925.0 L 1185.0 945.0 L 1186.0 951.0 L 1188.0 952.0 L 1188.0 969.0 L 1190.0 965.0 L 1192.0 972.0 L 1193.0 952.0 L 1191.0 948.0 L 1192.0 937.0 L 1194.0 934.0 L 1196.0 935.0 L 1196.0 927.0 L 1195.0 925.0 L 1193.0 926.0 L 1192.0 933.0 L 1190.0 934.0 L 1189.0 925.0 Z"></path>
<path d="M 1100.0 969.0 L 1096.0 977.0 L 1096.0 1006.0 L 1092.0 1013.0 L 1092.0 1041.0 L 1094.0 1036.0 L 1096.0 1040.0 L 1095.0 1017.0 L 1097.0 1012.0 L 1097.0 1004.0 L 1098.0 1003.0 L 1100.0 1006.0 Z"></path>
<path d="M 1098.0 901.0 L 1096.0 905.0 L 1102.0 905.0 L 1104.0 907.0 L 1104.0 927.0 L 1100.0 934.0 L 1100.0 960.0 L 1102.0 957.0 L 1104.0 960.0 L 1104.0 928.0 L 1105.0 924.0 L 1108.0 924.0 L 1108.0 904.0 L 1106.0 901.0 Z"></path>
<path d="M 532.0 1028.0 L 525.0 1028.0 L 508.0 1045.0 L 508.0 1049.0 L 502.0 1056.0 L 500.0 1056.0 L 500.0 1061.0 L 492.0 1070.0 L 492.0 1079.0 L 496.0 1079.0 L 496.0 1069.0 L 500.0 1068.0 L 500.0 1062.0 L 504.0 1061.0 L 505.0 1055.0 L 508.0 1055.0 L 508.0 1050.0 L 512.0 1049.0 L 513.0 1045.0 L 516.0 1044.0 L 520.0 1037.0 L 530.0 1032.0 Z"></path>
<path d="M 1513.0 401.0 L 1498.0 402.0 L 1493.0 400.0 L 1489.0 401.0 L 1489.0 404.0 L 1483.0 404.0 L 1479.0 406.0 L 1458.0 405.0 L 1457.0 408.0 L 1453.0 409.0 L 1482.0 409.0 L 1490.0 405.0 L 1510.0 405.0 Z"></path>
<path d="M 1201.0 1041.0 L 1197.0 1042.0 L 1197.0 1063.0 L 1196.0 1069.0 L 1193.0 1069.0 L 1193.0 1098.0 L 1197.0 1093.0 L 1197.0 1064.0 L 1201.0 1057.0 Z"></path>
<path d="M 1198.0 884.0 L 1195.0 884.0 L 1194.0 896.0 L 1192.0 902.0 L 1189.0 903.0 L 1189.0 922.0 L 1193.0 915.0 L 1193.0 906.0 L 1195.0 904.0 L 1197.0 908.0 L 1198.0 902.0 L 1200.0 909.0 L 1200.0 892.0 Z"></path>
<path d="M 1163.0 532.0 L 1160.0 533.0 L 1160.0 546.0 L 1156.0 550.0 L 1156.0 567.0 L 1152.0 574.0 L 1152.0 590.0 L 1154.0 584.0 L 1156.0 587.0 L 1157.0 562.0 L 1159.0 562.0 L 1160.0 566.0 L 1161.0 543.0 L 1162.0 542.0 L 1164.0 545.0 Z"></path>
<path d="M 468.0 1164.0 L 468.0 1178.0 L 477.0 1185.0 L 491.0 1185.0 L 501.0 1177.0 L 501.0 1173.0 L 499.0 1175.0 L 497.0 1172.0 L 497.0 1177.0 L 495.0 1180.0 L 494.0 1178.0 L 491.0 1181.0 L 474.0 1180.0 L 472.0 1174.0 L 473.0 1165.0 L 472.0 1163.0 Z"></path>
<path d="M 1435.0 410.0 L 1412.0 409.0 L 1412.0 411.0 L 1408.0 413.0 L 1387.0 413.0 L 1388.0 415.0 L 1386.0 417.0 L 1403.0 417.0 L 1410.0 413.0 L 1430.0 413.0 Z"></path>
<path d="M 1187.0 985.0 L 1184.0 989.0 L 1183.0 997.0 L 1181.0 996.0 L 1181.0 985.0 L 1177.0 987.0 L 1178.0 1010.0 L 1182.0 1003.0 L 1185.0 1005.0 L 1186.0 996.0 L 1188.0 1001.0 L 1189.0 989.0 Z"></path>
<path d="M 1571.0 394.0 L 1554.0 393.0 L 1554.0 395.0 L 1551.0 397.0 L 1528.0 397.0 L 1528.0 400.0 L 1522.0 401.0 L 1550.0 401.0 L 1554.0 397.0 L 1569.0 396.0 Z"></path>
<path d="M 1217.0 928.0 L 1215.0 930.0 L 1213.0 928.0 L 1213.0 950.0 L 1209.0 957.0 L 1210.0 972.0 L 1212.0 972.0 L 1213.0 970.0 L 1213.0 951.0 L 1217.0 947.0 Z"></path>
<path d="M 1314.0 464.0 L 1312.0 468.0 L 1313.0 476.0 L 1308.0 480.0 L 1309.0 489.0 L 1307.0 493.0 L 1305.0 491.0 L 1305.0 508.0 L 1309.0 503.0 L 1309.0 491.0 L 1313.0 486.0 L 1313.0 478.0 L 1317.0 474.0 L 1317.0 465.0 L 1315.0 466.0 Z"></path>
<path d="M 1350.0 808.0 L 1391.0 808.0 L 1385.0 806.0 L 1392.0 804.0 L 1354.0 804.0 Z"></path>
<path d="M 1421.0 1288.0 L 1419.0 1293.0 L 1432.0 1292.0 L 1436.0 1294.0 L 1437.0 1299.0 L 1441.0 1300.0 L 1440.0 1312.0 L 1442.0 1317.0 L 1445.0 1313.0 L 1445.0 1302.0 L 1441.0 1298.0 L 1441.0 1296.0 L 1432.0 1288.0 Z"></path>
<path d="M 1284.0 816.0 L 1263.0 816.0 L 1251.0 820.0 L 1240.0 820.0 L 1237.0 823.0 L 1250.0 824.0 L 1250.0 822.0 L 1253.0 820.0 L 1261.0 819.0 L 1283.0 820.0 L 1282.0 818.0 Z"></path>
<path d="M 1130.0 424.0 L 1120.0 424.0 L 1115.0 428.0 L 1108.0 428.0 L 1099.0 434.0 L 1094.0 433.0 L 1090.0 436.0 L 1085.0 436.0 L 1084.0 439.0 L 1090.0 440.0 L 1091.0 437.0 L 1101.0 434.0 L 1104.0 436.0 L 1104.0 434.0 L 1107.0 431.0 L 1114.0 432.0 L 1118.0 428.0 L 1125.0 429.0 L 1128.0 428.0 Z"></path>
<path d="M 472.0 1157.0 L 472.0 1160.0 L 475.0 1161.0 L 476.0 1158.0 L 480.0 1155.0 L 491.0 1157.0 L 493.0 1160.0 L 495.0 1158.0 L 497.0 1166.0 L 501.0 1166.0 L 501.0 1160.0 L 499.0 1160.0 L 492.0 1152.0 L 478.0 1152.0 Z"></path>
<path d="M 1088.0 1098.0 L 1086.0 1098.0 L 1085.0 1100.0 L 1083.0 1137.0 L 1084.0 1141.0 L 1086.0 1129.0 L 1088.0 1135.0 Z"></path>
<path d="M 1295.0 815.0 L 1302.0 816.0 L 1302.0 814.0 L 1306.0 812.0 L 1334.0 812.0 L 1330.0 810.0 L 1337.0 808.0 L 1311.0 808.0 L 1304.0 812.0 L 1296.0 812.0 Z"></path>
<path d="M 1151.0 598.0 L 1148.0 600.0 L 1148.0 611.0 L 1144.0 617.0 L 1144.0 634.0 L 1146.0 630.0 L 1148.0 634.0 L 1148.0 615.0 L 1149.0 610.0 L 1152.0 610.0 L 1153.0 604.0 Z"></path>
<path d="M 541.0 1025.0 L 541.0 1028.0 L 546.0 1028.0 L 547.0 1031.0 L 551.0 1033.0 L 557.0 1041.0 L 561.0 1041.0 L 561.0 1043.0 L 565.0 1047.0 L 565.0 1050.0 L 569.0 1048.0 L 568.0 1045.0 L 552.0 1028.0 L 547.0 1027.0 L 545.0 1025.0 Z"></path>
<path d="M 1224.0 404.0 L 1209.0 404.0 L 1206.0 408.0 L 1192.0 408.0 L 1188.0 412.0 L 1205.0 412.0 L 1207.0 408.0 L 1222.0 408.0 Z"></path>
<path d="M 1338.0 833.0 L 1325.0 833.0 L 1326.0 835.0 L 1321.0 837.0 L 1306.0 837.0 L 1305.0 841.0 L 1320.0 841.0 L 1324.0 837.0 L 1335.0 837.0 Z"></path>
<path d="M 579.0 1064.0 L 578.0 1081.0 L 576.0 1085.0 L 577.0 1092.0 L 573.0 1092.0 L 572.0 1096.0 L 568.0 1097.0 L 568.0 1101.0 L 571.0 1101.0 L 576.0 1097.0 L 578.0 1091.0 L 581.0 1089.0 L 581.0 1079.0 L 579.0 1076.0 L 581.0 1067.0 Z"></path>
<path d="M 1381.0 825.0 L 1360.0 825.0 L 1361.0 827.0 L 1356.0 829.0 L 1343.0 829.0 L 1344.0 831.0 L 1342.0 833.0 L 1350.0 833.0 L 1358.0 829.0 L 1376.0 829.0 Z"></path>
<path d="M 1361.0 387.0 L 1355.0 385.0 L 1350.0 388.0 L 1327.0 388.0 L 1326.0 392.0 L 1348.0 392.0 L 1346.0 390.0 L 1347.0 389.0 Z"></path>
<path d="M 1401.0 384.0 L 1430.0 384.0 L 1428.0 382.0 L 1434.0 380.0 L 1406.0 380.0 Z"></path>
<path d="M 938.0 488.0 L 933.0 488.0 L 929.0 492.0 L 925.0 492.0 L 922.0 496.0 L 916.0 496.0 L 913.0 499.0 L 909.0 500.0 L 908.0 503.0 L 913.0 504.0 L 915.0 500.0 L 921.0 500.0 L 923.0 496.0 L 929.0 496.0 L 931.0 493.0 L 938.0 492.0 Z"></path>
<path d="M 1302.0 510.0 L 1300.0 515.0 L 1301.0 524.0 L 1297.0 526.0 L 1296.0 530.0 L 1298.0 537.0 L 1297.0 539.0 L 1301.0 536.0 L 1301.0 526.0 L 1305.0 521.0 L 1305.0 511.0 L 1303.0 512.0 Z"></path>
<path d="M 1290.0 558.0 L 1288.0 563.0 L 1288.0 573.0 L 1285.0 573.0 L 1284.0 576.0 L 1286.0 584.0 L 1289.0 581.0 L 1289.0 574.0 L 1293.0 570.0 L 1293.0 559.0 L 1291.0 560.0 Z"></path>
<path d="M 1325.0 433.0 L 1321.0 433.0 L 1321.0 445.0 L 1319.0 448.0 L 1317.0 447.0 L 1316.0 456.0 L 1318.0 459.0 L 1321.0 457.0 L 1321.0 448.0 L 1325.0 444.0 Z"></path>
<path d="M 1532.0 378.0 L 1533.0 380.0 L 1561.0 380.0 L 1561.0 378.0 L 1558.0 376.0 L 1534.0 376.0 Z"></path>
<path d="M 1092.0 1059.0 L 1088.0 1063.0 L 1088.0 1088.0 L 1090.0 1083.0 L 1092.0 1087.0 Z"></path>
<path d="M 1285.0 588.0 L 1283.0 591.0 L 1281.0 588.0 L 1281.0 602.0 L 1279.0 605.0 L 1277.0 604.0 L 1277.0 616.0 L 1279.0 616.0 L 1281.0 613.0 L 1281.0 604.0 L 1285.0 599.0 Z"></path>
<path d="M 1286.0 846.0 L 1279.0 845.0 L 1277.0 849.0 L 1267.0 849.0 L 1265.0 853.0 L 1253.0 853.0 L 1252.0 857.0 L 1260.0 857.0 L 1266.0 853.0 L 1273.0 853.0 L 1278.0 849.0 L 1284.0 849.0 Z"></path>
<path d="M 1277.0 396.0 L 1304.0 396.0 L 1302.0 394.0 L 1307.0 392.0 L 1281.0 392.0 Z"></path>
<path d="M 1169.0 1081.0 L 1167.0 1084.0 L 1165.0 1081.0 L 1165.0 1109.0 L 1169.0 1099.0 Z"></path>
<path d="M 1182.0 1016.0 L 1180.0 1021.0 L 1180.0 1039.0 L 1182.0 1038.0 L 1184.0 1040.0 L 1185.0 1022.0 Z"></path>
<path d="M 1209.0 987.0 L 1207.0 989.0 L 1205.0 987.0 L 1205.0 1010.0 L 1209.0 1007.0 Z"></path>
<path d="M 492.0 1082.0 L 488.0 1085.0 L 489.0 1101.0 L 493.0 1101.0 L 494.0 1098.0 L 493.0 1088.0 L 491.0 1085.0 Z"></path>
<path d="M 1173.0 1051.0 L 1171.0 1053.0 L 1169.0 1052.0 L 1169.0 1073.0 L 1172.0 1072.0 Z"></path>
<path d="M 1181.0 955.0 L 1180.0 974.0 L 1181.0 978.0 L 1183.0 978.0 L 1185.0 976.0 L 1185.0 959.0 L 1183.0 961.0 Z"></path>
<path d="M 1490.0 378.0 L 1491.0 380.0 L 1517.0 380.0 L 1506.0 376.0 L 1495.0 376.0 Z"></path>
<path d="M 901.0 559.0 L 897.0 557.0 L 894.0 561.0 L 888.0 561.0 L 886.0 565.0 L 880.0 565.0 L 880.0 569.0 L 885.0 569.0 L 890.0 565.0 L 894.0 565.0 Z"></path>
<path d="M 949.0 538.0 L 947.0 539.0 L 945.0 537.0 L 942.0 542.0 L 935.0 541.0 L 933.0 545.0 L 925.0 545.0 L 924.0 549.0 L 931.0 549.0 L 935.0 545.0 L 941.0 545.0 L 943.0 542.0 L 948.0 541.0 Z"></path>
<path d="M 1113.0 848.0 L 1108.0 848.0 L 1103.0 852.0 L 1097.0 852.0 L 1089.0 856.0 L 1088.0 859.0 L 1093.0 860.0 L 1093.0 858.0 L 1097.0 855.0 L 1103.0 855.0 L 1107.0 851.0 L 1112.0 852.0 Z"></path>
<path d="M 1025.0 456.0 L 1018.0 456.0 L 1014.0 460.0 L 1007.0 460.0 L 1005.0 463.0 L 1000.0 464.0 L 998.0 467.0 L 1004.0 467.0 L 1007.0 463.0 L 1012.0 464.0 L 1015.0 460.0 L 1023.0 460.0 Z"></path>
<path d="M 1061.0 872.0 L 1057.0 872.0 L 1048.0 881.0 L 1044.0 890.0 L 1048.0 889.0 L 1048.0 885.0 L 1052.0 884.0 L 1052.0 882.0 L 1058.0 876.0 L 1061.0 876.0 Z"></path>
<path d="M 1173.0 1019.0 L 1172.0 1030.0 L 1173.0 1041.0 L 1175.0 1041.0 L 1177.0 1032.0 L 1177.0 1022.0 L 1175.0 1023.0 Z"></path>
<path d="M 495.0 1102.0 L 501.0 1109.0 L 507.0 1109.0 L 515.0 1112.0 L 523.0 1110.0 L 507.0 1108.0 L 505.0 1105.0 L 501.0 1105.0 L 500.0 1103.0 L 498.0 1104.0 Z"></path>
<path d="M 845.0 581.0 L 841.0 580.0 L 835.0 585.0 L 827.0 585.0 L 827.0 589.0 L 835.0 589.0 L 839.0 585.0 L 844.0 585.0 Z"></path>
<path d="M 1229.0 404.0 L 1247.0 404.0 L 1249.0 400.0 L 1232.0 400.0 L 1229.0 402.0 Z"></path>
<path d="M 1201.0 1013.0 L 1200.0 1024.0 L 1202.0 1033.0 L 1205.0 1028.0 L 1205.0 1014.0 L 1203.0 1017.0 Z"></path>
<path d="M 1221.0 903.0 L 1219.0 905.0 L 1217.0 903.0 L 1218.0 921.0 L 1221.0 918.0 Z"></path>
<path d="M 868.0 573.0 L 859.0 573.0 L 857.0 577.0 L 849.0 577.0 L 848.0 581.0 L 855.0 581.0 L 859.0 577.0 L 865.0 577.0 Z"></path>
<path d="M 1009.0 518.0 L 1001.0 517.0 L 997.0 521.0 L 988.0 521.0 L 987.0 525.0 L 993.0 525.0 L 998.0 521.0 L 1007.0 521.0 Z"></path>
<path d="M 532.0 1109.0 L 551.0 1109.0 L 552.0 1105.0 L 537.0 1105.0 L 536.0 1108.0 Z"></path>
<path d="M 1065.0 498.0 L 1059.0 497.0 L 1055.0 501.0 L 1045.0 501.0 L 1044.0 505.0 L 1052.0 505.0 L 1057.0 501.0 L 1064.0 501.0 Z"></path>
<path d="M 1169.0 836.0 L 1183.0 836.0 L 1184.0 833.0 L 1192.0 832.0 L 1172.0 832.0 Z"></path>
<path d="M 1437.0 1319.0 L 1433.0 1317.0 L 1430.0 1322.0 L 1424.0 1320.0 L 1418.0 1323.0 L 1420.0 1325.0 L 1429.0 1325.0 Z"></path>
<path d="M 921.0 549.0 L 917.0 548.0 L 913.0 553.0 L 905.0 553.0 L 904.0 557.0 L 910.0 557.0 L 914.0 553.0 L 920.0 553.0 Z"></path>
<path d="M 1225.0 878.0 L 1221.0 878.0 L 1222.0 894.0 L 1225.0 892.0 Z"></path>
<path d="M 1168.0 510.0 L 1164.0 513.0 L 1164.0 526.0 L 1166.0 522.0 L 1168.0 525.0 Z"></path>
<path d="M 1367.0 421.0 L 1381.0 421.0 L 1384.0 417.0 L 1369.0 417.0 L 1371.0 419.0 Z"></path>
<path d="M 1277.0 620.0 L 1275.0 622.0 L 1273.0 620.0 L 1272.0 628.0 L 1274.0 633.0 L 1277.0 631.0 Z"></path>
<path d="M 1258.0 400.0 L 1274.0 400.0 L 1275.0 396.0 L 1266.0 396.0 Z"></path>
<path d="M 1145.0 481.0 L 1157.0 481.0 L 1159.0 478.0 L 1166.0 477.0 L 1153.0 476.0 L 1149.0 477.0 L 1149.0 479.0 Z"></path>
<path d="M 1293.0 541.0 L 1292.0 549.0 L 1293.0 553.0 L 1296.0 553.0 L 1297.0 542.0 L 1295.0 543.0 Z"></path>
<path d="M 969.0 530.0 L 964.0 529.0 L 964.0 531.0 L 960.0 534.0 L 955.0 533.0 L 954.0 537.0 L 960.0 537.0 L 964.0 533.0 L 968.0 533.0 Z"></path>
<path d="M 1169.0 416.0 L 1183.0 416.0 L 1185.0 412.0 L 1174.0 412.0 Z"></path>
<path d="M 1234.0 862.0 L 1231.0 864.0 L 1229.0 862.0 L 1228.0 866.0 L 1224.0 868.0 L 1225.0 874.0 L 1229.0 873.0 L 1229.0 867.0 L 1233.0 865.0 Z"></path>
<path d="M 1239.0 671.0 L 1233.0 673.0 L 1226.0 673.0 L 1223.0 675.0 L 1226.0 677.0 L 1232.0 677.0 Z"></path>
<path d="M 978.0 472.0 L 973.0 472.0 L 969.0 476.0 L 965.0 476.0 L 964.0 478.0 L 968.0 480.0 L 971.0 476.0 L 976.0 477.0 L 978.0 476.0 Z"></path>
<path d="M 1454.0 378.0 L 1454.0 380.0 L 1468.0 380.0 L 1463.0 376.0 L 1456.0 376.0 Z"></path>
<path d="M 897.0 508.0 L 891.0 508.0 L 889.0 511.0 L 883.0 512.0 L 881.0 515.0 L 888.0 514.0 L 892.0 511.0 L 896.0 512.0 Z"></path>
<path d="M 1150.0 839.0 L 1160.0 840.0 L 1162.0 837.0 L 1165.0 836.0 L 1152.0 836.0 Z"></path>
<path d="M 1085.0 860.0 L 1080.0 860.0 L 1078.0 863.0 L 1073.0 864.0 L 1072.0 867.0 L 1077.0 868.0 L 1077.0 865.0 L 1079.0 863.0 L 1084.0 864.0 Z"></path>
<path d="M 1406.0 1310.0 L 1405.0 1316.0 L 1409.0 1321.0 L 1413.0 1321.0 L 1413.0 1317.0 L 1409.0 1317.0 Z"></path>
<path d="M 569.0 1051.0 L 569.0 1056.0 L 572.0 1056.0 L 574.0 1061.0 L 577.0 1062.0 L 577.0 1057.0 Z"></path>
<path d="M 1077.0 909.0 L 1089.0 909.0 L 1090.0 906.0 L 1082.0 905.0 Z"></path>
<path d="M 1290.0 845.0 L 1299.0 845.0 L 1302.0 841.0 L 1291.0 841.0 Z"></path>
<path d="M 1333.0 425.0 L 1343.0 425.0 L 1347.0 422.0 L 1336.0 421.0 Z"></path>
<path d="M 1154.0 419.0 L 1165.0 420.0 L 1167.0 416.0 L 1159.0 416.0 Z"></path>
<path d="M 1118.0 847.0 L 1126.0 848.0 L 1129.0 844.0 L 1119.0 844.0 Z"></path>
<path d="M 1203.0 831.0 L 1213.0 832.0 L 1215.0 828.0 L 1206.0 828.0 Z"></path>
<path d="M 1221.0 827.0 L 1230.0 828.0 L 1232.0 824.0 L 1223.0 824.0 Z"></path>
<path d="M 1172.0 496.0 L 1168.0 497.0 L 1168.0 507.0 L 1170.0 503.0 L 1172.0 504.0 Z"></path>
<path d="M 1067.0 444.0 L 1075.0 444.0 L 1078.0 440.0 L 1070.0 440.0 Z"></path>
<path d="M 1389.0 386.0 L 1393.0 388.0 L 1398.0 388.0 L 1399.0 384.0 L 1391.0 384.0 Z"></path>
<path d="M 974.0 529.0 L 982.0 529.0 L 984.0 526.0 L 976.0 525.0 Z"></path>
<path d="M 1041.0 506.0 L 1037.0 504.0 L 1034.0 505.0 L 1032.0 509.0 L 1040.0 509.0 Z"></path>
<path d="M 1086.0 493.0 L 1093.0 493.0 L 1097.0 490.0 L 1088.0 489.0 Z"></path>
<path d="M 1122.0 485.0 L 1131.0 485.0 L 1133.0 482.0 L 1125.0 481.0 Z"></path>
<path d="M 1171.0 477.0 L 1172.0 485.0 L 1174.0 483.0 L 1176.0 484.0 L 1176.0 477.0 Z"></path>
<path d="M 556.0 1105.0 L 563.0 1105.0 L 566.0 1101.0 L 557.0 1101.0 Z"></path>
<path d="M 1239.0 861.0 L 1247.0 861.0 L 1248.0 858.0 L 1241.0 857.0 Z"></path>
<path d="M 1136.0 843.0 L 1143.0 844.0 L 1145.0 840.0 L 1137.0 840.0 Z"></path>
<path d="M 1107.0 489.0 L 1114.0 489.0 L 1116.0 486.0 L 1108.0 485.0 Z"></path>
<path d="M 870.0 573.0 L 876.0 573.0 L 878.0 569.0 L 871.0 569.0 Z"></path>
<path d="M 1021.0 513.0 L 1027.0 513.0 L 1030.0 509.0 L 1023.0 509.0 Z"></path>
<path d="M 1056.0 447.0 L 1062.0 448.0 L 1065.0 444.0 L 1057.0 444.0 Z"></path>
<path d="M 814.0 594.0 L 821.0 593.0 L 822.0 590.0 L 816.0 589.0 Z"></path>
<path d="M 1136.0 423.0 L 1142.0 424.0 L 1142.0 422.0 L 1145.0 420.0 L 1137.0 420.0 Z"></path>
<path d="M 1072.0 497.0 L 1079.0 497.0 L 1080.0 494.0 L 1074.0 493.0 Z"></path>
<path d="M 1330.0 425.0 L 1325.0 425.0 L 1324.0 430.0 L 1327.0 430.0 Z"></path>
<path d="M 1059.0 913.0 L 1064.0 913.0 L 1066.0 910.0 L 1060.0 909.0 Z"></path>
<path d="M 1036.0 909.0 L 1037.0 913.0 L 1042.0 913.0 L 1040.0 908.0 Z"></path>
<path d="M 1044.0 451.0 L 1049.0 452.0 L 1051.0 448.0 L 1045.0 448.0 Z"></path>
<path d="M 1037.0 892.0 L 1036.0 897.0 L 1040.0 897.0 L 1040.0 892.0 Z"></path>
<path d="M 953.0 483.0 L 960.0 483.0 L 961.0 480.0 L 955.0 480.0 Z"></path>
<path d="M 944.0 485.0 L 944.0 487.0 L 949.0 488.0 L 950.0 484.0 Z"></path>
<path d="M 1011.0 517.0 L 1016.0 517.0 L 1017.0 514.0 L 1012.0 513.0 Z"></path>
<path d="M 900.0 505.0 L 900.0 507.0 L 905.0 508.0 L 905.0 504.0 Z"></path>
<path d="M 985.0 471.0 L 991.0 471.0 L 992.0 468.0 L 986.0 468.0 Z"></path>
<path d="M 1408.0 1300.0 L 1408.0 1304.0 L 1410.0 1302.0 L 1412.0 1305.0 L 1413.0 1299.0 Z"></path>
<path d="M 872.0 517.0 L 872.0 519.0 L 877.0 520.0 L 877.0 516.0 Z"></path>
<path d="M 1576.0 378.0 L 1577.0 380.0 L 1583.0 379.0 L 1581.0 377.0 Z"></path>
<path d="M 1032.0 453.0 L 1035.0 456.0 L 1037.0 456.0 L 1038.0 452.0 Z"></path>
<path d="M 1033.0 900.0 L 1032.0 904.0 L 1035.0 905.0 L 1035.0 900.0 Z"></path>
<path d="M 1065.0 868.0 L 1064.0 870.0 L 1068.0 872.0 L 1069.0 868.0 Z"></path>
<path d="M 1172.0 487.0 L 1169.0 488.0 L 1169.0 492.0 L 1172.0 491.0 Z"></path>
<path d="M 1379.0 388.0 L 1382.0 388.0 L 1383.0 386.0 L 1380.0 386.0 Z"></path>
</g>
<g id="gray" fill="#b7b7b7" fill-opacity="1">
<path d="M 1139.0 1281.0 L 1105.0 1281.0 L 1105.0 1283.0 L 1102.0 1285.0 L 1087.0 1285.0 L 1083.0 1286.0 L 1079.0 1292.0 L 1077.0 1291.0 L 1077.0 1392.0 L 1073.0 1393.0 L 1073.0 1507.0 L 1074.0 1500.0 L 1076.0 1498.0 L 1077.0 1522.0 L 1074.0 1524.0 L 1077.0 1527.0 L 1077.0 1547.0 L 1076.0 1551.0 L 1074.0 1552.0 L 1074.0 1555.0 L 1077.0 1556.0 L 1078.0 1565.0 L 1078.0 1637.0 L 1079.0 1648.0 L 1082.0 1650.0 L 1082.0 1667.0 L 1114.0 1667.0 L 1115.0 1630.0 L 1116.0 1627.0 L 1119.0 1626.0 L 1119.0 1562.0 L 1123.0 1554.0 L 1124.0 1544.0 L 1124.0 1501.0 L 1125.0 1500.0 L 1126.0 1503.0 L 1128.0 1503.0 L 1127.0 1469.0 L 1128.0 1462.0 L 1132.0 1456.0 L 1131.0 1436.0 L 1134.0 1415.0 L 1136.0 1423.0 L 1135.0 1382.0 L 1136.0 1368.0 L 1139.0 1367.0 L 1140.0 1362.0 L 1140.0 1324.0 L 1141.0 1320.0 L 1143.0 1319.0 L 1144.0 1310.0 L 1143.0 1286.0 L 1139.0 1283.0 Z M 1131.0 1286.0 L 1137.0 1290.0 L 1138.0 1299.0 L 1124.0 1415.0 L 1120.0 1422.0 L 1116.0 1422.0 L 1116.0 1427.0 L 1111.0 1433.0 L 1106.0 1432.0 L 1103.0 1436.0 L 1098.0 1434.0 L 1095.0 1437.0 L 1090.0 1438.0 L 1088.0 1436.0 L 1084.0 1424.0 L 1083.0 1412.0 L 1084.0 1298.0 L 1091.0 1291.0 Z"></path>
<path d="M 1594.0 386.0 L 1586.0 385.0 L 1585.0 384.0 L 1588.0 382.0 L 1587.0 380.0 L 1525.0 380.0 L 1517.0 382.0 L 1481.0 380.0 L 1476.0 382.0 L 1444.0 380.0 L 1435.0 381.0 L 1434.0 384.0 L 1430.0 385.0 L 1400.0 385.0 L 1398.0 389.0 L 1362.0 388.0 L 1352.0 389.0 L 1348.0 393.0 L 1331.0 394.0 L 1325.0 392.0 L 1308.0 393.0 L 1308.0 395.0 L 1304.0 397.0 L 1276.0 397.0 L 1274.0 401.0 L 1252.0 400.0 L 1247.0 405.0 L 1227.0 404.0 L 1222.0 409.0 L 1207.0 409.0 L 1205.0 413.0 L 1186.0 413.0 L 1183.0 417.0 L 1168.0 417.0 L 1165.0 421.0 L 1149.0 420.0 L 1144.0 422.0 L 1142.0 425.0 L 1132.0 424.0 L 1128.0 429.0 L 1125.0 430.0 L 1118.0 429.0 L 1114.0 433.0 L 1107.0 432.0 L 1104.0 437.0 L 1101.0 435.0 L 1091.0 438.0 L 1090.0 441.0 L 1081.0 440.0 L 1075.0 445.0 L 1066.0 445.0 L 1062.0 449.0 L 1053.0 448.0 L 1049.0 453.0 L 1040.0 452.0 L 1037.0 457.0 L 1035.0 457.0 L 1034.0 455.0 L 1026.0 456.0 L 1023.0 461.0 L 1015.0 461.0 L 1012.0 465.0 L 1007.0 464.0 L 1004.0 468.0 L 994.0 468.0 L 991.0 472.0 L 980.0 472.0 L 979.0 476.0 L 976.0 478.0 L 971.0 477.0 L 968.0 481.0 L 964.0 479.0 L 959.0 485.0 L 952.0 484.0 L 949.0 489.0 L 940.0 488.0 L 938.0 493.0 L 931.0 494.0 L 927.0 498.0 L 923.0 497.0 L 921.0 501.0 L 915.0 501.0 L 913.0 505.0 L 907.0 504.0 L 905.0 509.0 L 899.0 508.0 L 896.0 513.0 L 892.0 512.0 L 887.0 516.0 L 879.0 516.0 L 877.0 521.0 L 870.0 520.0 L 866.0 525.0 L 862.0 525.0 L 859.0 529.0 L 852.0 529.0 L 851.0 532.0 L 848.0 534.0 L 843.0 533.0 L 842.0 537.0 L 835.0 537.0 L 833.0 540.0 L 827.0 541.0 L 825.0 545.0 L 819.0 545.0 L 817.0 549.0 L 811.0 549.0 L 811.0 551.0 L 808.0 554.0 L 803.0 553.0 L 803.0 555.0 L 800.0 558.0 L 795.0 557.0 L 794.0 561.0 L 788.0 562.0 L 787.0 565.0 L 783.0 565.0 L 780.0 569.0 L 775.0 569.0 L 775.0 571.0 L 772.0 574.0 L 768.0 574.0 L 768.0 576.0 L 766.0 578.0 L 763.0 578.0 L 756.0 586.0 L 752.0 586.0 L 752.0 588.0 L 749.0 591.0 L 746.0 591.0 L 741.0 598.0 L 739.0 598.0 L 736.0 602.0 L 733.0 603.0 L 730.0 608.0 L 722.0 614.0 L 720.0 618.0 L 718.0 618.0 L 716.0 622.0 L 707.0 626.0 L 706.0 629.0 L 699.0 635.0 L 699.0 638.0 L 701.0 638.0 L 702.0 635.0 L 713.0 635.0 L 714.0 631.0 L 722.0 631.0 L 724.0 627.0 L 730.0 628.0 L 735.0 623.0 L 742.0 623.0 L 742.0 620.0 L 750.0 619.0 L 751.0 616.0 L 758.0 615.0 L 762.0 611.0 L 767.0 612.0 L 772.0 607.0 L 778.0 608.0 L 779.0 604.0 L 787.0 603.0 L 791.0 599.0 L 795.0 600.0 L 798.0 596.0 L 803.0 595.0 L 805.0 592.0 L 813.0 593.0 L 816.0 588.0 L 824.0 589.0 L 826.0 588.0 L 827.0 584.0 L 835.0 584.0 L 841.0 579.0 L 847.0 580.0 L 849.0 576.0 L 857.0 576.0 L 859.0 572.0 L 869.0 572.0 L 871.0 568.0 L 879.0 568.0 L 880.0 564.0 L 886.0 564.0 L 888.0 560.0 L 894.0 560.0 L 897.0 556.0 L 899.0 558.0 L 903.0 557.0 L 905.0 552.0 L 913.0 552.0 L 915.0 548.0 L 923.0 548.0 L 925.0 544.0 L 933.0 544.0 L 935.0 540.0 L 943.0 540.0 L 945.0 536.0 L 952.0 537.0 L 955.0 532.0 L 962.0 532.0 L 964.0 528.0 L 971.0 529.0 L 976.0 524.0 L 985.0 525.0 L 988.0 520.0 L 997.0 520.0 L 1001.0 516.0 L 1010.0 517.0 L 1012.0 512.0 L 1019.0 513.0 L 1023.0 508.0 L 1031.0 508.0 L 1034.0 504.0 L 1037.0 503.0 L 1043.0 504.0 L 1045.0 500.0 L 1055.0 500.0 L 1059.0 496.0 L 1070.0 497.0 L 1074.0 492.0 L 1084.0 493.0 L 1088.0 488.0 L 1105.0 489.0 L 1108.0 484.0 L 1119.0 485.0 L 1125.0 480.0 L 1135.0 482.0 L 1144.0 480.0 L 1147.0 477.0 L 1153.0 475.0 L 1172.0 475.0 L 1177.0 477.0 L 1177.0 484.0 L 1173.0 486.0 L 1173.0 504.0 L 1169.0 508.0 L 1169.0 525.0 L 1164.0 528.0 L 1165.0 545.0 L 1161.0 547.0 L 1161.0 566.0 L 1158.0 568.0 L 1157.0 572.0 L 1158.0 580.0 L 1156.0 590.0 L 1152.0 592.0 L 1154.0 604.0 L 1153.0 610.0 L 1150.0 612.0 L 1149.0 615.0 L 1149.0 634.0 L 1147.0 636.0 L 1145.0 635.0 L 1145.0 655.0 L 1141.0 656.0 L 1141.0 679.0 L 1138.0 680.0 L 1137.0 683.0 L 1138.0 698.0 L 1143.0 698.0 L 1145.0 696.0 L 1145.0 682.0 L 1148.0 662.0 L 1154.0 635.0 L 1156.0 615.0 L 1162.0 590.0 L 1164.0 570.0 L 1174.0 525.0 L 1178.0 491.0 L 1182.0 480.0 L 1182.0 475.0 L 1177.0 471.0 L 1164.0 471.0 L 1144.0 475.0 L 1129.0 476.0 L 1121.0 479.0 L 1093.0 484.0 L 1050.0 495.0 L 1026.0 503.0 L 1003.0 513.0 L 966.0 524.0 L 957.0 529.0 L 948.0 531.0 L 944.0 534.0 L 911.0 547.0 L 908.0 547.0 L 878.0 562.0 L 859.0 568.0 L 849.0 573.0 L 834.0 576.0 L 813.0 584.0 L 805.0 585.0 L 784.0 594.0 L 772.0 597.0 L 769.0 595.0 L 793.0 569.0 L 810.0 556.0 L 815.0 555.0 L 833.0 544.0 L 838.0 543.0 L 841.0 540.0 L 846.0 539.0 L 887.0 518.0 L 901.0 514.0 L 932.0 498.0 L 945.0 494.0 L 949.0 491.0 L 964.0 486.0 L 970.0 482.0 L 985.0 478.0 L 989.0 475.0 L 999.0 473.0 L 1003.0 470.0 L 1007.0 470.0 L 1014.0 466.0 L 1030.0 462.0 L 1035.0 459.0 L 1043.0 458.0 L 1049.0 455.0 L 1085.0 446.0 L 1090.0 443.0 L 1098.0 442.0 L 1112.0 436.0 L 1125.0 434.0 L 1145.0 427.0 L 1156.0 426.0 L 1165.0 423.0 L 1187.0 420.0 L 1197.0 417.0 L 1203.0 417.0 L 1215.0 412.0 L 1241.0 410.0 L 1258.0 406.0 L 1270.0 406.0 L 1280.0 402.0 L 1339.0 398.0 L 1353.0 395.0 L 1388.0 395.0 L 1408.0 390.0 L 1458.0 386.0 L 1471.0 388.0 L 1501.0 386.0 L 1513.0 388.0 L 1516.0 391.0 L 1514.0 393.0 L 1492.0 395.0 L 1478.0 399.0 L 1448.0 402.0 L 1415.0 403.0 L 1407.0 406.0 L 1387.0 408.0 L 1375.0 412.0 L 1345.0 414.0 L 1338.0 417.0 L 1328.0 418.0 L 1318.0 423.0 L 1315.0 429.0 L 1311.0 449.0 L 1302.0 479.0 L 1298.0 502.0 L 1291.0 523.0 L 1281.0 563.0 L 1281.0 568.0 L 1275.0 587.0 L 1269.0 617.0 L 1266.0 625.0 L 1265.0 636.0 L 1257.0 663.0 L 1258.0 665.0 L 1265.0 663.0 L 1264.0 656.0 L 1268.0 653.0 L 1268.0 641.0 L 1270.0 638.0 L 1272.0 639.0 L 1273.0 636.0 L 1271.0 628.0 L 1272.0 620.0 L 1276.0 619.0 L 1275.0 609.0 L 1276.0 604.0 L 1280.0 602.0 L 1280.0 588.0 L 1285.0 586.0 L 1283.0 576.0 L 1284.0 573.0 L 1287.0 572.0 L 1288.0 558.0 L 1292.0 558.0 L 1291.0 545.0 L 1293.0 540.0 L 1296.0 541.0 L 1295.0 530.0 L 1296.0 526.0 L 1299.0 524.0 L 1300.0 510.0 L 1304.0 510.0 L 1304.0 491.0 L 1308.0 489.0 L 1307.0 480.0 L 1310.0 476.0 L 1312.0 476.0 L 1312.0 464.0 L 1317.0 463.0 L 1317.0 459.0 L 1315.0 456.0 L 1316.0 447.0 L 1320.0 445.0 L 1319.0 437.0 L 1322.0 431.0 L 1325.0 432.0 L 1323.0 430.0 L 1323.0 426.0 L 1325.0 424.0 L 1332.0 424.0 L 1336.0 420.0 L 1366.0 420.0 L 1366.0 418.0 L 1369.0 416.0 L 1385.0 416.0 L 1387.0 412.0 L 1408.0 412.0 L 1412.0 408.0 L 1419.0 407.0 L 1432.0 409.0 L 1447.0 409.0 L 1452.0 408.0 L 1458.0 404.0 L 1479.0 405.0 L 1483.0 403.0 L 1488.0 403.0 L 1489.0 400.0 L 1493.0 399.0 L 1498.0 401.0 L 1515.0 401.0 L 1524.0 399.0 L 1528.0 396.0 L 1551.0 396.0 L 1554.0 392.0 L 1576.0 393.0 L 1581.0 391.0 L 1582.0 388.0 Z M 1523.0 390.0 L 1525.0 388.0 L 1540.0 387.0 L 1544.0 389.0 L 1537.0 391.0 Z"></path>
<path d="M 1473.0 806.0 L 1424.0 806.0 L 1420.0 804.0 L 1396.0 804.0 L 1393.0 805.0 L 1391.0 809.0 L 1338.0 809.0 L 1334.0 813.0 L 1306.0 813.0 L 1302.0 817.0 L 1285.0 817.0 L 1283.0 821.0 L 1253.0 821.0 L 1250.0 825.0 L 1235.0 824.0 L 1230.0 829.0 L 1217.0 828.0 L 1213.0 833.0 L 1196.0 832.0 L 1191.0 834.0 L 1190.0 836.0 L 1176.0 838.0 L 1166.0 837.0 L 1163.0 840.0 L 1156.0 842.0 L 1153.0 840.0 L 1148.0 840.0 L 1143.0 845.0 L 1131.0 844.0 L 1126.0 849.0 L 1115.0 848.0 L 1112.0 853.0 L 1107.0 852.0 L 1102.0 857.0 L 1095.0 857.0 L 1093.0 861.0 L 1087.0 860.0 L 1084.0 865.0 L 1079.0 864.0 L 1077.0 869.0 L 1071.0 868.0 L 1068.0 873.0 L 1066.0 871.0 L 1063.0 872.0 L 1061.0 877.0 L 1058.0 877.0 L 1051.0 886.0 L 1049.0 885.0 L 1048.0 890.0 L 1043.0 891.0 L 1041.0 893.0 L 1042.0 896.0 L 1040.0 898.0 L 1036.0 898.0 L 1036.0 907.0 L 1040.0 907.0 L 1044.0 913.0 L 1056.0 913.0 L 1060.0 908.0 L 1073.0 909.0 L 1079.0 907.0 L 1082.0 904.0 L 1094.0 905.0 L 1098.0 900.0 L 1106.0 900.0 L 1109.0 904.0 L 1109.0 924.0 L 1105.0 928.0 L 1105.0 960.0 L 1103.0 962.0 L 1101.0 961.0 L 1101.0 1006.0 L 1098.0 1008.0 L 1096.0 1017.0 L 1097.0 1040.0 L 1095.0 1043.0 L 1093.0 1042.0 L 1093.0 1087.0 L 1091.0 1090.0 L 1089.0 1089.0 L 1088.0 1093.0 L 1090.0 1120.0 L 1089.0 1135.0 L 1086.0 1138.0 L 1086.0 1157.0 L 1084.0 1160.0 L 1088.0 1159.0 L 1093.0 1155.0 L 1092.0 1145.0 L 1095.0 1123.0 L 1096.0 1092.0 L 1098.0 1083.0 L 1102.0 1025.0 L 1108.0 978.0 L 1108.0 963.0 L 1113.0 924.0 L 1114.0 899.0 L 1111.0 896.0 L 1104.0 896.0 L 1086.0 902.0 L 1067.0 903.0 L 1062.0 906.0 L 1053.0 908.0 L 1044.0 907.0 L 1041.0 904.0 L 1042.0 899.0 L 1053.0 889.0 L 1061.0 879.0 L 1079.0 871.0 L 1084.0 867.0 L 1106.0 859.0 L 1113.0 855.0 L 1138.0 850.0 L 1154.0 845.0 L 1159.0 845.0 L 1163.0 843.0 L 1206.0 838.0 L 1236.0 830.0 L 1255.0 827.0 L 1296.0 823.0 L 1312.0 818.0 L 1337.0 817.0 L 1346.0 815.0 L 1358.0 817.0 L 1356.0 820.0 L 1349.0 823.0 L 1291.0 836.0 L 1286.0 839.0 L 1257.0 847.0 L 1227.0 858.0 L 1222.0 863.0 L 1213.0 886.0 L 1213.0 897.0 L 1209.0 908.0 L 1206.0 950.0 L 1204.0 952.0 L 1202.0 950.0 L 1201.0 940.0 L 1203.0 933.0 L 1207.0 892.0 L 1209.0 888.0 L 1208.0 879.0 L 1205.0 877.0 L 1200.0 877.0 L 1190.0 881.0 L 1186.0 885.0 L 1179.0 932.0 L 1176.0 965.0 L 1171.0 989.0 L 1169.0 1014.0 L 1166.0 1028.0 L 1166.0 1040.0 L 1162.0 1059.0 L 1162.0 1072.0 L 1159.0 1084.0 L 1158.0 1104.0 L 1155.0 1116.0 L 1153.0 1137.0 L 1163.0 1136.0 L 1159.0 1124.0 L 1160.0 1114.0 L 1164.0 1111.0 L 1164.0 1081.0 L 1166.0 1078.0 L 1168.0 1080.0 L 1169.0 1077.0 L 1167.0 1063.0 L 1168.0 1052.0 L 1170.0 1049.0 L 1173.0 1049.0 L 1171.0 1030.0 L 1172.0 1019.0 L 1174.0 1017.0 L 1175.0 1021.0 L 1177.0 1020.0 L 1176.0 987.0 L 1178.0 984.0 L 1181.0 983.0 L 1179.0 974.0 L 1180.0 955.0 L 1182.0 954.0 L 1183.0 958.0 L 1185.0 958.0 L 1184.0 925.0 L 1188.0 923.0 L 1188.0 903.0 L 1191.0 901.0 L 1193.0 896.0 L 1194.0 884.0 L 1198.0 883.0 L 1200.0 885.0 L 1201.0 892.0 L 1201.0 909.0 L 1199.0 911.0 L 1198.0 909.0 L 1196.0 910.0 L 1197.0 935.0 L 1193.0 937.0 L 1193.0 972.0 L 1191.0 976.0 L 1189.0 970.0 L 1188.0 986.0 L 1190.0 989.0 L 1188.0 1002.0 L 1189.0 1006.0 L 1187.0 1008.0 L 1186.0 1006.0 L 1184.0 1006.0 L 1183.0 1010.0 L 1186.0 1022.0 L 1185.0 1040.0 L 1180.0 1040.0 L 1179.0 1042.0 L 1180.0 1058.0 L 1182.0 1065.0 L 1181.0 1076.0 L 1177.0 1082.0 L 1177.0 1116.0 L 1173.0 1116.0 L 1174.0 1128.0 L 1171.0 1131.0 L 1171.0 1134.0 L 1188.0 1132.0 L 1190.0 1130.0 L 1190.0 1127.0 L 1187.0 1125.0 L 1188.0 1107.0 L 1193.0 1103.0 L 1193.0 1092.0 L 1191.0 1088.0 L 1192.0 1069.0 L 1196.0 1063.0 L 1196.0 1042.0 L 1201.0 1038.0 L 1199.0 1021.0 L 1200.0 1013.0 L 1204.0 1013.0 L 1204.0 987.0 L 1206.0 985.0 L 1208.0 986.0 L 1210.0 974.0 L 1208.0 969.0 L 1208.0 957.0 L 1212.0 950.0 L 1212.0 928.0 L 1216.0 927.0 L 1217.0 925.0 L 1216.0 903.0 L 1218.0 901.0 L 1220.0 902.0 L 1221.0 897.0 L 1220.0 878.0 L 1225.0 877.0 L 1223.0 868.0 L 1227.0 865.0 L 1228.0 862.0 L 1236.0 861.0 L 1241.0 856.0 L 1250.0 857.0 L 1253.0 852.0 L 1265.0 852.0 L 1267.0 848.0 L 1277.0 848.0 L 1279.0 844.0 L 1288.0 845.0 L 1291.0 840.0 L 1304.0 840.0 L 1306.0 836.0 L 1321.0 836.0 L 1325.0 832.0 L 1341.0 832.0 L 1343.0 828.0 L 1356.0 828.0 L 1360.0 824.0 L 1382.0 824.0 L 1383.0 820.0 L 1421.0 820.0 L 1427.0 819.0 L 1430.0 816.0 L 1456.0 816.0 L 1457.0 812.0 L 1471.0 811.0 Z M 1200.0 964.0 L 1202.0 965.0 L 1201.0 976.0 L 1198.0 975.0 L 1198.0 969.0 Z"></path>
<path d="M 546.0 1029.0 L 536.0 1028.0 L 531.0 1030.0 L 530.0 1033.0 L 526.0 1034.0 L 524.0 1037.0 L 521.0 1037.0 L 517.0 1044.0 L 514.0 1045.0 L 512.0 1050.0 L 509.0 1050.0 L 509.0 1055.0 L 506.0 1057.0 L 503.0 1063.0 L 501.0 1062.0 L 501.0 1068.0 L 499.0 1070.0 L 497.0 1069.0 L 497.0 1079.0 L 493.0 1080.0 L 492.0 1085.0 L 494.0 1088.0 L 495.0 1101.0 L 499.0 1101.0 L 501.0 1104.0 L 505.0 1104.0 L 507.0 1107.0 L 511.0 1108.0 L 531.0 1108.0 L 537.0 1104.0 L 554.0 1105.0 L 557.0 1100.0 L 567.0 1100.0 L 567.0 1097.0 L 571.0 1096.0 L 571.0 1093.0 L 573.0 1091.0 L 576.0 1092.0 L 575.0 1085.0 L 577.0 1081.0 L 577.0 1064.0 L 572.0 1061.0 L 572.0 1057.0 L 568.0 1056.0 L 568.0 1050.0 L 565.0 1051.0 L 560.0 1041.0 L 557.0 1042.0 L 555.0 1038.0 L 546.0 1031.0 Z M 548.0 1037.0 L 566.0 1057.0 L 571.0 1066.0 L 572.0 1086.0 L 570.0 1090.0 L 559.0 1097.0 L 545.0 1101.0 L 534.0 1101.0 L 528.0 1103.0 L 506.0 1102.0 L 499.0 1094.0 L 499.0 1084.0 L 503.0 1071.0 L 509.0 1061.0 L 521.0 1045.0 L 532.0 1036.0 L 542.0 1034.0 Z"></path>
<path d="M 1283.0 437.0 L 1280.0 437.0 L 1277.0 441.0 L 1276.0 449.0 L 1271.0 461.0 L 1267.0 483.0 L 1262.0 496.0 L 1251.0 547.0 L 1246.0 563.0 L 1235.0 620.0 L 1230.0 635.0 L 1223.0 673.0 L 1233.0 672.0 L 1241.0 669.0 L 1242.0 651.0 L 1251.0 611.0 L 1260.0 554.0 L 1266.0 532.0 L 1269.0 510.0 L 1276.0 483.0 L 1276.0 478.0 L 1280.0 467.0 L 1282.0 450.0 L 1285.0 444.0 L 1285.0 439.0 Z"></path>
<path d="M 1167.0 1287.0 L 1163.0 1289.0 L 1161.0 1288.0 L 1161.0 1306.0 L 1158.0 1308.0 L 1157.0 1312.0 L 1158.0 1359.0 L 1157.0 1370.0 L 1154.0 1371.0 L 1154.0 1404.0 L 1157.0 1408.0 L 1157.0 1416.0 L 1154.0 1423.0 L 1155.0 1452.0 L 1157.0 1447.0 L 1159.0 1446.0 L 1159.0 1400.0 L 1160.0 1393.0 L 1164.0 1392.0 L 1164.0 1348.0 L 1167.0 1347.0 L 1168.0 1341.0 Z"></path>
<path d="M 745.0 860.0 L 740.0 863.0 L 737.0 863.0 L 733.0 867.0 L 728.0 868.0 L 720.0 875.0 L 715.0 875.0 L 712.0 879.0 L 707.0 879.0 L 705.0 882.0 L 699.0 883.0 L 698.0 887.0 L 679.0 896.0 L 673.0 900.0 L 673.0 903.0 L 671.0 905.0 L 667.0 904.0 L 664.0 907.0 L 664.0 910.0 L 659.0 914.0 L 659.0 917.0 L 664.0 916.0 L 671.0 912.0 L 673.0 909.0 L 679.0 910.0 L 679.0 908.0 L 676.0 907.0 L 678.0 904.0 L 680.0 906.0 L 690.0 906.0 L 694.0 903.0 L 701.0 902.0 L 706.0 898.0 L 712.0 898.0 L 714.0 895.0 L 721.0 894.0 L 724.0 891.0 L 732.0 890.0 L 736.0 886.0 L 730.0 885.0 L 728.0 882.0 L 724.0 880.0 L 724.0 877.0 L 728.0 875.0 L 730.0 872.0 L 733.0 872.0 L 738.0 870.0 L 739.0 868.0 L 744.0 867.0 Z"></path>
<path d="M 770.0 1291.0 L 767.0 1291.0 L 762.0 1295.0 L 758.0 1295.0 L 753.0 1299.0 L 747.0 1299.0 L 743.0 1303.0 L 739.0 1303.0 L 738.0 1306.0 L 734.0 1307.0 L 730.0 1311.0 L 727.0 1311.0 L 724.0 1315.0 L 722.0 1315.0 L 719.0 1318.0 L 711.0 1319.0 L 708.0 1322.0 L 703.0 1323.0 L 700.0 1327.0 L 698.0 1327.0 L 694.0 1331.0 L 691.0 1331.0 L 688.0 1336.0 L 682.0 1336.0 L 680.0 1339.0 L 676.0 1339.0 L 675.0 1343.0 L 680.0 1346.0 L 684.0 1346.0 L 689.0 1342.0 L 693.0 1342.0 L 699.0 1338.0 L 703.0 1338.0 L 707.0 1334.0 L 711.0 1334.0 L 714.0 1331.0 L 725.0 1330.0 L 727.0 1327.0 L 734.0 1326.0 L 736.0 1322.0 L 740.0 1319.0 L 744.0 1321.0 L 747.0 1318.0 L 753.0 1318.0 L 756.0 1315.0 L 761.0 1314.0 L 762.0 1312.0 L 756.0 1314.0 L 748.0 1314.0 L 745.0 1311.0 L 745.0 1306.0 L 750.0 1301.0 L 759.0 1300.0 Z"></path>
<path d="M 133.0 765.0 L 127.0 763.0 L 126.0 761.0 L 123.0 761.0 L 123.0 758.0 L 119.0 759.0 L 107.0 770.0 L 91.0 779.0 L 89.0 784.0 L 81.0 792.0 L 67.0 799.0 L 57.0 808.0 L 54.0 814.0 L 57.0 814.0 L 60.0 810.0 L 77.0 802.0 L 85.0 794.0 L 97.0 790.0 L 105.0 782.0 L 109.0 781.0 L 111.0 778.0 L 122.0 774.0 L 124.0 771.0 Z"></path>
<path d="M 1408.0 1305.0 L 1409.0 1316.0 L 1412.0 1315.0 L 1415.0 1321.0 L 1421.0 1321.0 L 1424.0 1319.0 L 1431.0 1320.0 L 1433.0 1316.0 L 1435.0 1318.0 L 1440.0 1317.0 L 1440.0 1300.0 L 1438.0 1301.0 L 1432.0 1293.0 L 1422.0 1293.0 L 1419.0 1296.0 L 1417.0 1292.0 L 1417.0 1299.0 L 1413.0 1301.0 L 1413.0 1305.0 Z M 1422.0 1298.0 L 1427.0 1297.0 L 1434.0 1302.0 L 1436.0 1309.0 L 1433.0 1314.0 L 1427.0 1316.0 L 1420.0 1316.0 L 1415.0 1312.0 L 1416.0 1305.0 Z"></path>
<path d="M 473.0 1162.0 L 473.0 1174.0 L 475.0 1177.0 L 474.0 1179.0 L 491.0 1180.0 L 494.0 1176.0 L 496.0 1177.0 L 497.0 1171.0 L 500.0 1172.0 L 500.0 1167.0 L 497.0 1167.0 L 496.0 1162.0 L 493.0 1161.0 L 491.0 1158.0 L 478.0 1157.0 L 477.0 1161.0 Z M 484.0 1161.0 L 488.0 1162.0 L 493.0 1168.0 L 493.0 1171.0 L 487.0 1176.0 L 480.0 1175.0 L 477.0 1172.0 L 479.0 1164.0 Z"></path>
<path d="M 1298.0 1232.0 L 1291.0 1233.0 L 1284.0 1227.0 L 1285.0 1222.0 L 1281.0 1222.0 L 1274.0 1226.0 L 1265.0 1226.0 L 1262.0 1229.0 L 1251.0 1231.0 L 1250.0 1235.0 L 1252.0 1238.0 L 1255.0 1238.0 L 1257.0 1236.0 L 1298.0 1234.0 Z"></path>
<path d="M 419.0 626.0 L 415.0 627.0 L 410.0 621.0 L 404.0 623.0 L 397.0 630.0 L 392.0 631.0 L 390.0 634.0 L 386.0 635.0 L 378.0 645.0 L 382.0 643.0 L 390.0 643.0 L 393.0 639.0 L 397.0 638.0 L 405.0 631.0 L 413.0 630.0 Z"></path>
<path d="M 449.0 610.0 L 446.0 610.0 L 440.0 602.0 L 437.0 602.0 L 421.0 612.0 L 436.0 615.0 L 439.0 618.0 Z"></path>
<path d="M 809.0 830.0 L 803.0 831.0 L 801.0 834.0 L 796.0 835.0 L 793.0 838.0 L 787.0 839.0 L 785.0 842.0 L 780.0 843.0 L 777.0 847.0 L 794.0 839.0 L 803.0 839.0 Z"></path>
<path d="M 151.0 738.0 L 134.0 747.0 L 130.0 752.0 L 139.0 751.0 L 147.0 743.0 L 150.0 742.0 Z"></path>
<path d="M 896.0 832.0 L 894.0 831.0 L 889.0 833.0 L 874.0 834.0 L 872.0 839.0 L 883.0 838.0 L 887.0 835.0 L 896.0 834.0 Z"></path>
<path d="M 171.0 722.0 L 168.0 722.0 L 167.0 726.0 L 162.0 727.0 L 153.0 736.0 L 155.0 737.0 L 163.0 735.0 Z"></path>
<path d="M 756.0 877.0 L 747.0 878.0 L 739.0 886.0 L 744.0 886.0 L 746.0 883.0 L 754.0 882.0 Z"></path>
<path d="M 908.0 785.0 L 901.0 786.0 L 898.0 789.0 L 892.0 790.0 L 889.0 794.0 L 885.0 794.0 L 883.0 796.0 L 900.0 792.0 L 902.0 788.0 L 905.0 788.0 Z"></path>
<path d="M 867.0 803.0 L 863.0 803.0 L 861.0 806.0 L 855.0 807.0 L 853.0 810.0 L 848.0 811.0 L 842.0 815.0 L 846.0 815.0 L 853.0 811.0 L 856.0 811.0 L 857.0 809.0 L 865.0 806.0 Z"></path>
<path d="M 835.0 1259.0 L 832.0 1259.0 L 821.0 1267.0 L 828.0 1267.0 Z"></path>
<path d="M 231.0 705.0 L 224.0 705.0 L 220.0 707.0 L 218.0 711.0 L 222.0 711.0 L 227.0 707.0 L 231.0 707.0 Z"></path>
<path d="M 832.0 852.0 L 825.0 854.0 L 817.0 854.0 L 812.0 858.0 L 820.0 858.0 L 823.0 855.0 L 831.0 854.0 Z"></path>
<path d="M 468.0 599.0 L 473.0 599.0 L 475.0 596.0 L 480.0 594.0 L 471.0 594.0 L 469.0 595.0 Z"></path>
<path d="M 851.0 1274.0 L 846.0 1274.0 L 838.0 1278.0 L 834.0 1282.0 L 837.0 1282.0 L 838.0 1280.0 L 843.0 1278.0 L 847.0 1278.0 Z"></path>
<path d="M 871.0 1243.0 L 867.0 1243.0 L 865.0 1246.0 L 860.0 1247.0 L 860.0 1249.0 L 869.0 1248.0 L 871.0 1246.0 Z"></path>
<path d="M 505.0 580.0 L 497.0 580.0 L 494.0 582.0 L 494.0 585.0 L 492.0 587.0 L 496.0 586.0 L 498.0 583.0 L 504.0 582.0 Z"></path>
<path d="M 196.0 726.0 L 191.0 727.0 L 182.0 735.0 L 187.0 734.0 Z"></path>
<path d="M 952.0 401.0 L 941.0 402.0 L 938.0 404.0 L 938.0 406.0 L 941.0 407.0 L 943.0 404.0 Z"></path>
<path d="M 990.0 366.0 L 996.0 366.0 L 999.0 364.0 L 999.0 362.0 L 993.0 362.0 Z"></path>
<path d="M 644.0 919.0 L 644.0 921.0 L 646.0 922.0 L 654.0 920.0 L 649.0 918.0 Z"></path>
<path d="M 654.0 1356.0 L 651.0 1355.0 L 647.0 1359.0 L 643.0 1359.0 L 643.0 1362.0 L 647.0 1361.0 L 650.0 1358.0 L 654.0 1358.0 Z"></path>
<path d="M 544.0 562.0 L 535.0 563.0 L 533.0 567.0 L 538.0 567.0 L 541.0 563.0 Z"></path>
<path d="M 183.0 714.0 L 179.0 714.0 L 174.0 720.0 L 179.0 719.0 L 182.0 717.0 Z"></path>
<path d="M 873.0 1267.0 L 881.0 1267.0 L 882.0 1264.0 L 876.0 1264.0 Z"></path>
<path d="M 689.0 497.0 L 682.0 498.0 L 677.0 503.0 L 680.0 503.0 L 681.0 500.0 L 688.0 499.0 Z"></path>
<path d="M 549.0 540.0 L 541.0 544.0 L 547.0 544.0 Z"></path>
<path d="M 847.0 846.0 L 842.0 849.0 L 834.0 851.0 L 843.0 850.0 Z"></path>
<path d="M 803.0 1294.0 L 790.0 1299.0 L 799.0 1298.0 Z"></path>
<path d="M 258.0 689.0 L 250.0 692.0 L 248.0 695.0 L 252.0 694.0 L 254.0 691.0 Z"></path>
<path d="M 912.0 371.0 L 907.0 372.0 L 905.0 375.0 L 909.0 375.0 Z"></path>
<path d="M 991.0 750.0 L 991.0 752.0 L 999.0 751.0 Z"></path>
<path d="M 548.0 488.0 L 543.0 490.0 L 541.0 493.0 L 546.0 491.0 Z"></path>
<path d="M 327.0 618.0 L 323.0 619.0 L 323.0 621.0 L 327.0 620.0 Z"></path>
<path d="M 927.0 304.0 L 933.0 302.0 L 928.0 302.0 Z"></path>
</g>
<g id="dark" fill="#050505" fill-opacity="1">
<path d="M 1514.0 390.0 L 1501.0 387.0 L 1486.0 389.0 L 1458.0 387.0 L 1408.0 391.0 L 1388.0 396.0 L 1353.0 396.0 L 1339.0 399.0 L 1287.0 402.0 L 1270.0 407.0 L 1215.0 413.0 L 1203.0 418.0 L 1145.0 428.0 L 1125.0 435.0 L 1112.0 437.0 L 1098.0 443.0 L 1035.0 460.0 L 989.0 476.0 L 932.0 499.0 L 901.0 515.0 L 887.0 519.0 L 810.0 557.0 L 793.0 570.0 L 777.0 586.0 L 771.0 596.0 L 834.0 575.0 L 849.0 572.0 L 966.0 523.0 L 1003.0 512.0 L 1050.0 494.0 L 1129.0 475.0 L 1177.0 470.0 L 1183.0 475.0 L 1183.0 480.0 L 1179.0 491.0 L 1175.0 525.0 L 1157.0 615.0 L 1146.0 682.0 L 1146.0 692.0 L 1148.0 690.0 L 1150.0 696.0 L 1156.0 696.0 L 1177.0 689.0 L 1190.0 688.0 L 1195.0 684.0 L 1206.0 682.0 L 1216.0 676.0 L 1220.0 669.0 L 1222.0 672.0 L 1255.0 520.0 L 1275.0 444.0 L 1280.0 436.0 L 1286.0 439.0 L 1286.0 444.0 L 1283.0 450.0 L 1281.0 467.0 L 1271.0 505.0 L 1248.0 632.0 L 1244.0 645.0 L 1242.0 667.0 L 1244.0 666.0 L 1247.0 669.0 L 1252.0 668.0 L 1258.0 659.0 L 1274.0 587.0 L 1317.0 423.0 L 1322.0 419.0 L 1345.0 413.0 L 1375.0 411.0 L 1415.0 402.0 L 1478.0 398.0 L 1492.0 394.0 L 1514.0 392.0 Z"></path>
<path d="M 1357.0 817.0 L 1346.0 816.0 L 1312.0 819.0 L 1296.0 824.0 L 1236.0 831.0 L 1206.0 839.0 L 1163.0 844.0 L 1123.0 853.0 L 1093.0 864.0 L 1066.0 877.0 L 1043.0 899.0 L 1042.0 904.0 L 1046.0 907.0 L 1058.0 906.0 L 1067.0 902.0 L 1086.0 901.0 L 1104.0 895.0 L 1113.0 896.0 L 1116.0 902.0 L 1093.0 1149.0 L 1096.0 1150.0 L 1098.0 1154.0 L 1131.0 1147.0 L 1136.0 1143.0 L 1147.0 1140.0 L 1149.0 1136.0 L 1153.0 1134.0 L 1161.0 1059.0 L 1185.0 885.0 L 1190.0 880.0 L 1200.0 876.0 L 1205.0 876.0 L 1209.0 879.0 L 1210.0 888.0 L 1202.0 940.0 L 1203.0 950.0 L 1205.0 950.0 L 1208.0 908.0 L 1212.0 897.0 L 1212.0 886.0 L 1221.0 863.0 L 1227.0 857.0 L 1291.0 835.0 L 1349.0 822.0 Z"></path>
<path d="M 1131.0 1287.0 L 1091.0 1292.0 L 1085.0 1298.0 L 1084.0 1412.0 L 1085.0 1424.0 L 1090.0 1437.0 L 1098.0 1433.0 L 1103.0 1435.0 L 1106.0 1431.0 L 1111.0 1432.0 L 1115.0 1427.0 L 1115.0 1422.0 L 1120.0 1421.0 L 1123.0 1415.0 L 1137.0 1292.0 Z"></path>
<path d="M 548.0 1038.0 L 542.0 1035.0 L 534.0 1036.0 L 526.0 1041.0 L 516.0 1052.0 L 505.0 1069.0 L 500.0 1084.0 L 500.0 1094.0 L 506.0 1101.0 L 528.0 1102.0 L 545.0 1100.0 L 559.0 1096.0 L 569.0 1090.0 L 571.0 1086.0 L 570.0 1066.0 L 565.0 1057.0 Z"></path>
<path d="M 1417.0 1305.0 L 1416.0 1312.0 L 1420.0 1315.0 L 1431.0 1314.0 L 1435.0 1309.0 L 1433.0 1302.0 L 1427.0 1298.0 L 1422.0 1299.0 Z"></path>
<path d="M 484.0 1162.0 L 480.0 1164.0 L 478.0 1172.0 L 487.0 1175.0 L 492.0 1171.0 L 492.0 1168.0 L 488.0 1163.0 Z"></path>
<path d="M 1525.0 390.0 L 1537.0 390.0 L 1540.0 388.0 Z"></path>
<path d="M 1201.0 965.0 L 1199.0 975.0 L 1201.0 975.0 Z"></path>
</g>
<g id="burgundy" fill="#80152e" fill-opacity="1">
<path d="M 2325.0 84.0 L 2320.0 74.0 L 2296.0 49.0 L 2285.0 44.0 L 2270.0 29.0 L 2257.0 20.0 L 2241.0 14.0 L 2181.0 11.0 L 2050.0 13.0 L 1919.0 24.0 L 1726.0 52.0 L 1564.0 88.0 L 1470.0 113.0 L 1396.0 137.0 L 1366.0 144.0 L 1295.0 169.0 L 1242.0 185.0 L 1078.0 245.0 L 1063.0 253.0 L 1048.0 257.0 L 1023.0 269.0 L 972.0 288.0 L 932.0 308.0 L 842.0 346.0 L 831.0 353.0 L 811.0 361.0 L 805.0 366.0 L 794.0 369.0 L 763.0 385.0 L 748.0 390.0 L 692.0 420.0 L 619.0 455.0 L 458.0 544.0 L 438.0 558.0 L 424.0 564.0 L 342.0 615.0 L 333.0 623.0 L 322.0 627.0 L 271.0 662.0 L 265.0 664.0 L 251.0 677.0 L 241.0 682.0 L 223.0 697.0 L 228.0 697.0 L 238.0 690.0 L 262.0 679.0 L 283.0 665.0 L 303.0 656.0 L 321.0 644.0 L 339.0 636.0 L 353.0 626.0 L 393.0 604.0 L 404.0 600.0 L 428.0 585.0 L 439.0 581.0 L 450.0 573.0 L 487.0 556.0 L 545.0 525.0 L 673.0 464.0 L 725.0 443.0 L 781.0 417.0 L 816.0 405.0 L 829.0 398.0 L 839.0 396.0 L 873.0 381.0 L 883.0 379.0 L 904.0 369.0 L 925.0 363.0 L 981.0 341.0 L 1087.0 309.0 L 1132.0 293.0 L 1156.0 288.0 L 1261.0 258.0 L 1294.0 252.0 L 1315.0 245.0 L 1431.0 221.0 L 1507.0 209.0 L 1521.0 205.0 L 1611.0 192.0 L 1720.0 180.0 L 1785.0 176.0 L 1809.0 177.0 L 1813.0 180.0 L 1797.0 188.0 L 1705.0 201.0 L 1500.0 237.0 L 1290.0 285.0 L 1286.0 288.0 L 1239.0 298.0 L 1160.0 321.0 L 1110.0 333.0 L 1056.0 351.0 L 1017.0 361.0 L 966.0 379.0 L 940.0 385.0 L 929.0 392.0 L 910.0 396.0 L 880.0 408.0 L 870.0 410.0 L 847.0 421.0 L 818.0 429.0 L 755.0 456.0 L 736.0 461.0 L 711.0 473.0 L 693.0 479.0 L 673.0 488.0 L 662.0 496.0 L 652.0 498.0 L 625.0 513.0 L 606.0 519.0 L 590.0 529.0 L 568.0 536.0 L 556.0 545.0 L 567.0 544.0 L 583.0 537.0 L 593.0 530.0 L 608.0 526.0 L 646.0 507.0 L 650.0 507.0 L 673.0 496.0 L 683.0 494.0 L 729.0 473.0 L 743.0 470.0 L 829.0 436.0 L 923.0 406.0 L 938.0 399.0 L 1058.0 365.0 L 1069.0 360.0 L 1102.0 353.0 L 1138.0 341.0 L 1268.0 309.0 L 1299.0 304.0 L 1348.0 292.0 L 1414.0 281.0 L 1442.0 274.0 L 1508.0 265.0 L 1518.0 261.0 L 1576.0 254.0 L 1597.0 249.0 L 1616.0 248.0 L 1713.0 234.0 L 1797.0 228.0 L 1814.0 225.0 L 1961.0 217.0 L 2029.0 218.0 L 2077.0 222.0 L 2126.0 229.0 L 2156.0 230.0 L 2184.0 229.0 L 2206.0 225.0 L 2223.0 219.0 L 2235.0 211.0 L 2240.0 189.0 L 2249.0 180.0 L 2279.0 168.0 L 2316.0 142.0 L 2325.0 132.0 L 2332.0 120.0 L 2332.0 112.0 L 2326.0 96.0 Z"></path>
<path d="M 1822.0 631.0 L 1813.0 621.0 L 1801.0 613.0 L 1790.0 609.0 L 1738.0 606.0 L 1705.0 607.0 L 1695.0 605.0 L 1642.0 609.0 L 1589.0 610.0 L 1563.0 615.0 L 1516.0 618.0 L 1503.0 623.0 L 1473.0 625.0 L 1456.0 631.0 L 1437.0 632.0 L 1422.0 637.0 L 1378.0 644.0 L 1268.0 670.0 L 1261.0 669.0 L 1255.0 665.0 L 1249.0 670.0 L 1243.0 668.0 L 1232.0 678.0 L 1226.0 678.0 L 1219.0 672.0 L 1216.0 677.0 L 1208.0 682.0 L 1195.0 685.0 L 1190.0 689.0 L 1177.0 690.0 L 1156.0 697.0 L 1150.0 697.0 L 1147.0 693.0 L 1142.0 702.0 L 1123.0 712.0 L 1067.0 729.0 L 1061.0 733.0 L 1033.0 741.0 L 1008.0 753.0 L 981.0 761.0 L 976.0 766.0 L 961.0 774.0 L 941.0 781.0 L 939.0 784.0 L 933.0 786.0 L 932.0 789.0 L 935.0 789.0 L 938.0 793.0 L 937.0 800.0 L 948.0 801.0 L 953.0 804.0 L 971.0 803.0 L 1029.0 793.0 L 1088.0 778.0 L 1123.0 772.0 L 1132.0 768.0 L 1150.0 766.0 L 1167.0 761.0 L 1177.0 761.0 L 1195.0 755.0 L 1242.0 748.0 L 1257.0 743.0 L 1275.0 742.0 L 1290.0 737.0 L 1332.0 733.0 L 1355.0 727.0 L 1397.0 725.0 L 1499.0 715.0 L 1552.0 715.0 L 1570.0 713.0 L 1666.0 714.0 L 1715.0 718.0 L 1773.0 729.0 L 1781.0 724.0 L 1792.0 711.0 L 1801.0 697.0 L 1806.0 682.0 L 1812.0 676.0 L 1821.0 651.0 Z"></path>
<path d="M 1563.0 1161.0 L 1554.0 1118.0 L 1543.0 1102.0 L 1520.0 1087.0 L 1497.0 1087.0 L 1468.0 1091.0 L 1432.0 1091.0 L 1354.0 1100.0 L 1343.0 1104.0 L 1326.0 1105.0 L 1304.0 1111.0 L 1285.0 1112.0 L 1263.0 1119.0 L 1224.0 1125.0 L 1195.0 1132.0 L 1190.0 1135.0 L 1179.0 1135.0 L 1166.0 1141.0 L 1159.0 1141.0 L 1150.0 1136.0 L 1147.0 1141.0 L 1136.0 1144.0 L 1131.0 1148.0 L 1098.0 1155.0 L 1095.0 1151.0 L 1092.0 1160.0 L 1087.0 1165.0 L 1067.0 1171.0 L 1058.0 1176.0 L 1042.0 1179.0 L 1022.0 1188.0 L 1001.0 1194.0 L 990.0 1200.0 L 972.0 1205.0 L 906.0 1235.0 L 895.0 1242.0 L 895.0 1245.0 L 901.0 1246.0 L 922.0 1243.0 L 1004.0 1216.0 L 1043.0 1211.0 L 1062.0 1205.0 L 1085.0 1203.0 L 1099.0 1199.0 L 1128.0 1197.0 L 1151.0 1190.0 L 1207.0 1186.0 L 1225.0 1181.0 L 1257.0 1177.0 L 1328.0 1172.0 L 1384.0 1172.0 L 1414.0 1174.0 L 1460.0 1181.0 L 1478.0 1188.0 L 1487.0 1198.0 L 1480.0 1203.0 L 1448.0 1204.0 L 1428.0 1207.0 L 1416.0 1212.0 L 1356.0 1217.0 L 1336.0 1224.0 L 1353.0 1228.0 L 1376.0 1228.0 L 1420.0 1233.0 L 1444.0 1241.0 L 1450.0 1245.0 L 1471.0 1249.0 L 1484.0 1260.0 L 1492.0 1261.0 L 1499.0 1255.0 L 1510.0 1236.0 L 1515.0 1208.0 L 1519.0 1204.0 L 1543.0 1192.0 L 1553.0 1184.0 L 1562.0 1172.0 Z"></path>
<path d="M 548.0 551.0 L 539.0 553.0 L 536.0 557.0 L 539.0 558.0 Z"></path>
</g>
</g></svg>