<?xml version="1.0" encoding="UTF-8"?>
<svg xmlns="http://www.w3.org/2000/svg" width="1024" height="1024" viewBox="0 0 1024 1024" role="img" aria-label="To&amp;To Tattoo symbol logo">
<defs><filter id="soft" x="-10%" y="-10%" width="120%" height="120%"><feGaussianBlur in="SourceAlpha" stdDeviation="0.15" result="b"></feGaussianBlur><feMerge><feMergeNode in="b"></feMergeNode><feMergeNode in="SourceGraphic"></feMergeNode></feMerge></filter></defs>
<g transform="translate(122.000 255.890) scale(1.228346)" filter="url(#soft)">
<path d="M 412.0 122.0 L 350.0 125.0 L 310.0 132.0 L 277.0 142.0 L 241.0 157.0 L 219.0 169.0 L 211.0 178.0 L 287.0 149.0 L 318.0 143.0 L 320.0 146.0 L 311.0 198.0 L 314.0 191.0 L 321.0 191.0 L 323.0 188.0 L 314.0 187.0 L 316.0 180.0 L 328.0 181.0 L 330.0 184.0 L 329.0 192.0 L 331.0 192.0 L 336.0 172.0 L 334.0 191.0 L 340.0 189.0 L 353.0 133.0 L 356.0 130.0 Z" fill="#111111"></path>
<path d="M 369.0 229.0 L 357.0 229.0 L 305.0 238.0 L 291.0 244.0 L 285.0 250.0 L 285.0 252.0 L 296.0 251.0 L 300.0 249.0 L 303.0 251.0 L 297.0 313.0 L 302.0 308.0 L 308.0 308.0 L 308.0 306.0 L 306.0 305.0 L 307.0 297.0 L 311.0 298.0 L 313.0 308.0 L 321.0 247.0 L 323.0 245.0 L 326.0 246.0 L 322.0 277.0 L 323.0 285.0 L 326.0 258.0 L 330.0 241.0 L 338.0 237.0 Z" fill="#111111"></path>
<path d="M 309.0 347.0 L 301.0 347.0 L 300.0 348.0 L 296.0 348.0 L 295.0 349.0 L 295.0 373.0 L 294.0 374.0 L 294.0 381.0 L 295.0 382.0 L 295.0 404.0 L 297.0 406.0 L 301.0 405.0 L 303.0 403.0 L 303.0 401.0 L 304.0 400.0 L 304.0 393.0 L 305.0 392.0 L 305.0 387.0 L 306.0 386.0 L 306.0 377.0 L 307.0 376.0 L 307.0 368.0 L 308.0 367.0 L 308.0 355.0 L 309.0 354.0 Z" fill="#111111"></path>
<path d="M 161.0 284.0 L 157.0 284.0 L 151.0 291.0 L 150.0 295.0 L 149.0 296.0 L 149.0 299.0 L 151.0 301.0 L 160.0 301.0 L 161.0 300.0 L 164.0 300.0 L 167.0 298.0 L 167.0 291.0 Z" fill="#111111"></path>
<path d="M 378.0 352.0 L 378.0 354.0 L 383.0 354.0 L 383.0 351.0 L 382.0 350.0 L 380.0 350.0 Z" fill="#111111"></path>
<path d="M 144.0 316.0 L 144.0 319.0 L 147.0 319.0 L 148.0 318.0 L 147.0 316.0 Z" fill="#111111"></path>
<path d="M 607.0 46.0 L 587.0 28.0 L 540.0 27.0 L 449.0 38.0 L 371.0 58.0 L 271.0 94.0 L 193.0 130.0 L 95.0 186.0 L 55.0 217.0 L 130.0 174.0 L 134.0 176.0 L 127.0 182.0 L 196.0 149.0 L 261.0 125.0 L 358.0 100.0 L 450.0 85.0 L 577.0 83.0 L 607.0 59.0 Z" fill="#9B0035"></path>
<path d="M 481.0 182.0 L 474.0 177.0 L 466.0 176.0 L 419.0 177.0 L 339.0 191.0 L 337.0 194.0 L 330.0 193.0 L 328.0 197.0 L 314.0 201.0 L 309.0 200.0 L 254.0 220.0 L 211.0 240.0 L 201.0 248.0 L 246.0 233.0 L 350.0 210.0 L 396.0 205.0 L 449.0 205.0 L 468.0 209.0 L 480.0 192.0 Z" fill="#9B0035"></path>
<path d="M 415.0 307.0 L 412.0 301.0 L 405.0 296.0 L 371.0 298.0 L 319.0 307.0 L 309.0 313.0 L 300.0 316.0 L 296.0 315.0 L 245.0 334.0 L 211.0 351.0 L 206.0 356.0 L 276.0 330.0 L 340.0 320.0 L 370.0 319.0 L 390.0 322.0 L 392.0 324.0 L 388.0 326.0 L 340.0 332.0 L 340.0 334.0 L 376.0 334.0 L 399.0 341.0 L 404.0 329.0 L 416.0 319.0 Z" fill="#9B0035"></path>
</g>
</svg>